<?xml version="1.0" standalone="no"?>
<!DOCTYPE svg PUBLIC "-//W3C//DTD SVG 1.1//EN" "http://www.w3.org/Graphics/SVG/1.1/DTD/svg11.dtd" >
<!--
2013-9-30: Created.
-->
<svg>
<metadata>
Created by iconfont
</metadata>
<defs>

<font id="iconfont" horiz-adv-x="1024" >
  <font-face
    font-family="iconfont"
    font-weight="500"
    font-stretch="normal"
    units-per-em="1024"
    ascent="896"
    descent="-128"
  />
    <missing-glyph />
    
    <glyph glyph-name="SAASbiaoqianguanli" unicode="&#59353;" d="M0 896h1024v-1024H0zM899.623385 272.108308l-275.337847-275.298462a76.8 76.8 0 0 0-108.701538 0l-344.930462 344.536616v384h384l344.969847-344.969847a76.8 76.8 0 0 0 0-108.307692zM914.747077 257.063385l-275.377231-275.377231a98.146462 98.146462 0 0 0-138.830769 0l-351.192615 350.798769V746.653538h414.168615l6.222769-6.222769 345.009231-345.009231a98.146462 98.146462 0 0 0 0-138.358153zM192 350.168615l338.707692-338.313846a55.453538 55.453538 0 0 1 78.493539 0l275.298461 275.298462a55.453538 55.453538 0 0 1 0 78.139077l-338.668307 338.707692H192v-353.831385zM394.633846 448a53.326769 53.326769 0 1 1 0 106.653538 53.326769 53.326769 0 0 1 0-106.653538z"  horiz-adv-x="1024" />

    
    <glyph glyph-name="SAASruzhudanwei" unicode="&#59354;" d="M0 896h1024v-1024H0zM277.346462 725.346462h640v-640H256v-42.692924h704V768H234.653538v-192h42.692924zM192 554.653538h469.346462v-469.307076H170.653538v-42.692924h533.346462V597.346462H149.346462v-192h42.653538zM85.346462 405.346462h341.346461v-341.346462H85.346462zM64 426.653538h384v-384h-384v384zM106.653538 384v-298.653538h298.692924V384H106.653538z"  horiz-adv-x="1024" />

    
    <glyph glyph-name="SAASbumenguanli" unicode="&#59356;" d="M0 896h1024v-1024H0zM85.346462 170.653538H256v-170.653538H85.346462zM768 170.653538h170.653538v-170.653538H768zM426.653538 170.653538h170.653539v-170.653538h-170.653539zM64 192h213.346462v-213.346462H64v213.346462z m42.653538-42.653538v-128h128v128h-128zM746.653538 192h213.346462v-213.346462h-213.346462v213.346462z m42.692924-170.653538h128v128h-128v-128zM405.346462 192h213.307076v-213.346462h-213.307076v213.346462z m42.653538-170.653538h128v128h-128v-128zM170.653538 768h682.653539v-256H170.653538zM149.346462 789.346462h725.307076v-298.692924H149.346462V789.346462z m42.653538-42.692924v-213.307076h640V746.653538H192zM533.346462 149.346462v384h-42.692924v-384zM192 320h640v-170.653538h42.653538v213.307076H149.346462v-213.307076h42.653538zM277.346462 618.653538h85.307076V661.346462H277.346462z"  horiz-adv-x="1024" />

    
    <glyph glyph-name="SAASfangyuanqingkuang" unicode="&#59373;" d="M0 896h1024v-1024H0zM85.346462 512h853.307076L512 768zM8.310154 490.653538H1015.729231L512 792.891077 8.310154 490.653538z m154.033231 42.692924L512 743.108923l349.656615-209.762461H162.343385zM960 21.346462H64v-42.692924h896zM170.653538 533.346462v-554.692924h42.692924V533.346462zM384 533.346462v-554.692924h42.653538V533.346462zM597.346462 533.346462v-554.692924h42.653538V533.346462zM810.653538 533.346462v-554.692924h42.692924V533.346462z"  horiz-adv-x="1024" />

    
    <glyph glyph-name="SAASjiaoseguanli" unicode="&#59376;" d="M0 896h1024v-1024H0zM170.653538 640a85.346462 85.346462 0 1 1 0 170.653538 85.346462 85.346462 0 0 1 0-170.653538zM213.346462 0a128 128 0 1 1 0 256 128 128 0 0 1 0-256zM810.653538-42.653538a128 128 0 1 1 0 256 128 128 0 0 1 0-256zM469.346462 298.653538a170.653538 170.653538 0 1 1 0 341.346462 170.653538 170.653538 0 0 1 0-341.346462zM725.346462 640a85.346462 85.346462 0 1 1 0 170.653538 85.346462 85.346462 0 0 1 0-170.653538zM170.653538 618.653538a106.653538 106.653538 0 1 1 0 213.346462 106.653538 106.653538 0 0 1 0-213.346462z m0 42.692924a64 64 0 1 0 0 128 64 64 0 0 0 0-128zM213.346462-21.346462a149.346462 149.346462 0 1 1 0 298.692924 149.346462 149.346462 0 0 1 0-298.692924z m0 42.692924a106.653538 106.653538 0 1 0 0 213.307076 106.653538 106.653538 0 0 0 0-213.307076zM810.653538-64a149.346462 149.346462 0 1 1 0 298.653538 149.346462 149.346462 0 0 1 0-298.653538z m0 42.653538a106.653538 106.653538 0 1 0 0 213.346462 106.653538 106.653538 0 0 0 0-213.346462zM469.346462 277.346462a192 192 0 1 1 0 384 192 192 0 0 1 0-384z m0 42.653538a149.346462 149.346462 0 1 0 0 298.653538 149.346462 149.346462 0 0 0 0-298.653538zM725.346462 618.653538a106.653538 106.653538 0 1 1 0 213.346462 106.653538 106.653538 0 0 1 0-213.346462z m0 42.692924a64 64 0 1 0 0 128 64 64 0 0 0 0-128zM204.484923 661.346462l115.515077-115.515077 30.168615 30.168615-115.515077 115.515077zM640 670.168615l-72.861538-72.861538 30.208-30.129231L670.168615 640zM755.318154 178.018462l-154.663385 193.299692-33.319384-26.663385 154.663384-193.299692zM298.653538 204.484923l115.515077 115.515077-30.168615 30.168615-115.515077-115.515077z"  horiz-adv-x="1024" />

    
    <glyph glyph-name="SAASyingyongguanli" unicode="&#59392;" d="M0 896h1024v-1024H0zM426.653538 810.653538H85.346462v-341.307076h341.307076zM426.653538 298.653538H85.346462v-341.307076h341.307076zM938.653538 810.653538h-341.307076v-341.307076h341.307076zM448 832h-384v-384h384v384z m-42.653538-341.346462H106.653538V789.346462h298.692924v-298.692924zM448 320h-384v-384h384v384z m-42.653538-341.346462H106.653538v298.692924h298.692924v-298.692924zM960 832h-384v-384h384v384z m-42.653538-42.653538v-298.692924h-298.692924V789.346462h298.692924zM618.732308 320v-384h42.653538v384zM874.653538 320v-384h42.692924v384z"  horiz-adv-x="1024" />

    
    <glyph glyph-name="SAASzichanguanli" unicode="&#59393;" d="M0 896h1024v-1024H0zM512-42.653538c235.638154 0 426.653538 191.015385 426.653538 426.653538 0 235.638154-191.015385 426.653538-426.653538 426.653538C276.361846 810.653538 85.346462 619.638154 85.346462 384c0-235.638154 191.015385-426.653538 426.653538-426.653538zM512-64c247.414154 0 448 200.585846 448 448S759.414154 832 512 832 64 631.414154 64 384 264.585846-64 512-64z m0 42.653538C288.137846-21.346462 106.653538 160.137846 106.653538 384S288.137846 789.346462 512 789.346462 917.346462 607.862154 917.346462 384 735.862154-21.346462 512-21.346462zM512 534.830881m30.160606-30.160607l90.537517-90.537517q30.160606-30.160606 0-60.321212l-90.537517-90.537518q-30.160606-30.160606-60.321212 0l-90.537517 90.537518q-30.160606 30.160606 0 60.321212l90.537517 90.537517q30.160606 30.160606 60.321212 0ZM557.252923 519.758769l90.505846-90.505846a64 64 0 0 0 0-90.505846l-90.505846-90.505846a64 64 0 0 0-90.505846 0L376.241231 338.707692a64 64 0 0 0 0 90.505846l90.505846 90.505847a64 64 0 0 0 90.505846 0z m-30.168615-30.168615a21.346462 21.346462 0 0 1-30.168616 0l-90.505846-90.505846a21.346462 21.346462 0 0 1 0-30.168616l90.505846-90.505846a21.346462 21.346462 0 0 1 30.168616 0l90.505846 90.505846a21.346462 21.346462 0 0 1 0 30.168616l-90.505846 90.505846z"  horiz-adv-x="1024" />

    
    <glyph glyph-name="SAASyiqiyidang" unicode="&#59394;" d="M0 896h1024v-1024H0zM896 810.653538H128v-213.307076h768zM896 490.653538H128v-213.307076h768zM896 170.653538H128v-213.307076h768zM917.346462 832H106.653538v-256h810.692924v256z m-42.692924-42.653538v-170.692924H149.346462V789.346462h725.307076zM917.346462 512H106.653538v-256h810.692924v256z m-42.692924-213.346462H149.346462v170.692924h725.307076v-170.692924zM917.346462 192H106.653538v-256h810.692924v256z m-42.692924-213.346462H149.346462v170.692924h725.307076v-170.692924zM426.653538 682.653538h170.692924V725.346462h-170.692924zM426.653538 362.653538h170.692924v42.692924h-170.692924zM426.653538 42.653538h170.692924v42.692924h-170.692924z"  horiz-adv-x="1024" />

    
    <glyph glyph-name="SAASshujuweihu" unicode="&#59395;" d="M0 896h1024v-1024H0zM550.715077 391.443692a233.826462 233.826462 0 0 1-60.061539-156.750769 234.496 234.496 0 0 1 79.753847-176.285538c-48.561231-10.161231-105.472-15.753846-165.060923-15.753847-165.021538 0-298.692923 44.583385-298.692924 85.346462V661.346462H64V128c0-77.036308 152.891077-128 341.346462-128 82.550154 0 160.492308 10.24 221.065846 28.553846l47.655384 14.414769-43.323077 24.576a192.196923 192.196923 0 0 0-97.398153 167.108923c0 48.049231 17.644308 93.262769 49.112615 128.275693a191.409231 191.409231 0 0 0 142.887385 63.724307h21.307076V661.346462h-42.653538v-192.984616a234.062769 234.062769 0 0 1-153.284923-76.918154zM938.653538 234.653538a213.346462 213.346462 0 1 0-426.653538 0 213.346462 213.346462 0 0 0 426.653538 0zM960 234.653538a234.653538 234.653538 0 1 0-469.346462 0 234.653538 234.653538 0 0 0 469.346462 0z m-42.653538 0a192 192 0 1 1-384 0 192 192 0 0 1 384 0zM725.346462 640c0-58.919385-143.281231-106.653538-320-106.653538-176.758154 0-320 47.734154-320 106.653538 0 58.919385 143.241846 106.653538 320 106.653538 176.718769 0 320-47.734154 320-106.653538zM746.653538 640c0-77.036308-152.851692-128-341.307076-128S64 562.963692 64 640s152.891077 128 341.346462 128 341.307077-50.963692 341.307076-128z m-42.653538 0c0 40.763077-133.671385 85.346462-298.653538 85.346462-165.021538 0-298.692923-44.583385-298.692924-85.346462s133.671385-85.346462 298.692924-85.346462c165.021538 0 298.653538 44.583385 298.653538 85.346462zM64 298.653538c0-77.036308 152.891077-128 341.346462-128 38.715077 0 76.563692 2.244923 112.285538 6.616616l21.188923 2.56-5.12 42.377846-21.228308-2.599385c-33.988923-4.135385-70.104615-6.301538-107.126153-6.301538-165.021538 0-298.692923 44.583385-298.692924 85.346461v21.346462H64v-21.346462zM64 469.346462c0-77.036308 152.891077-128 341.346462-128 58.801231 0 115.396923 5.159385 165.29723 14.887384l20.952616 4.096-8.152616 41.865846-20.952615-4.096c-47.143385-9.176615-101.021538-14.099692-157.144615-14.099692-165.021538 0-298.692923 44.544-298.692924 85.346462v21.307076H64v-21.307076zM725.346462 344.615385l95.232-54.980923v-109.961847l-95.232-54.980923-95.232 54.980923v109.961847L725.346462 344.615385z m-52.578462-79.596308v-60.691692l52.578462-30.326154 52.539076 30.326154v60.652307l-52.539076 30.404923-52.578462-30.365538z"  horiz-adv-x="1024" />

    
    <glyph glyph-name="SAASyonghuguanli" unicode="&#59396;" d="M0 896h1024v-1024H0zM512 469.346462a149.346462 149.346462 0 1 1 0 298.653538 149.346462 149.346462 0 0 1 0-298.653538zM512 448a170.653538 170.653538 0 1 1 0 341.346462 170.653538 170.653538 0 0 1 0-341.346462z m0 42.653538a128 128 0 1 0 0 256 128 128 0 0 0 0-256zM243.790769 758.744615a170.456615 170.456615 0 0 1-73.137231-140.091077 170.535385 170.535385 0 0 1 82.707693-146.274461l18.274461-11.027692 22.055385 36.588307-18.313846 11.027693a127.881846 127.881846 0 0 0-62.030769 109.686153c0 42.417231 20.716308 81.289846 54.862769 105.078154l17.486769 12.209231-24.418462 35.012923-17.486769-12.209231zM755.790769 723.731692a127.803077 127.803077 0 0 0 54.862769-105.078154 127.803077 127.803077 0 0 0-54.862769-105.038769l-17.486769-12.209231 24.418462-35.012923 17.486769 12.209231a170.456615 170.456615 0 0 1 73.137231 140.051692 170.456615 170.456615 0 0 1-73.137231 140.091077l-17.486769 12.209231-24.418462-35.012923 17.486769-12.209231zM256 42.653538v-42.653538h512v42.653538c0 79.556923 0 119.296-12.996923 150.646154a170.653538 170.653538 0 0 1-92.356923 92.356923c-31.350154 12.996923-71.128615 12.996923-150.646154 12.996923-79.556923 0-119.296 0-150.646154-12.996923a170.653538 170.653538 0 0 1-92.356923-92.356923c-12.996923-31.350154-12.996923-71.128615-12.996923-150.646154zM234.653538 42.653538v-64h554.692924v64c0 102.990769-1.693538 127.606154-14.611693 158.838154a192 192 0 0 1-103.936 103.896616c-31.232 12.918154-55.808 14.611692-158.798769 14.611692s-127.606154-1.693538-158.798769-14.611692a192 192 0 0 1-103.936-103.896616c-12.918154-31.232-14.572308-55.847385-14.572308-158.838154z m42.692924-21.307076v21.307076c0 95.822769 1.575385 118.823385 11.342769 142.493539a149.307077 149.307077 0 0 0 80.817231 80.817231c23.630769 9.806769 46.670769 11.382154 142.493538 11.382154s118.823385-1.575385 142.493538-11.382154a149.307077 149.307077 0 0 0 80.817231-80.817231c9.767385-23.630769 11.342769-46.670769 11.342769-142.493539v-21.307076H277.346462zM960-21.346462V25.6c0 123.785846-2.402462 153.206154-20.913231 189.558154a192 192 0 0 1-83.889231 83.889231l-19.022769 9.728-19.377231-38.045539 18.983385-9.688615a149.346462 149.346462 0 0 0 65.260308-65.260308c14.060308-27.529846 16.305231-54.980923 16.305231-170.180923v-46.946462h42.653538zM106.653538-21.346462V25.6c0 115.2 2.244923 142.651077 16.305231 170.180923a149.346462 149.346462 0 0 0 65.260308 65.260308l18.983385 9.688615-19.377231 38.045539-18.983385-9.688616a192 192 0 0 1-83.889231-83.889231c-18.510769-36.391385-20.952615-65.811692-20.952615-189.597538v-46.946462h42.653538z"  horiz-adv-x="1024" />

    
    <glyph glyph-name="biaoqian" unicode="&#59689;" d="M269.749217 289.931346c0 23.749624 8.18737 43.949304 25.774592 61.974018l503.079535 482.117367C816.253064 850.997463 840.815175 865.584732 870.102212 877.972035 900.601729 890.384339 927.588801 895.99675 952.200912 895.99675h293.182858A88.573598 88.573598 0 0 0 1308.745267 870.08466c17.587222-16.874733 26.987073-37.174411 26.987073-60.824037v-280.470559c0-23.687125-5.874907-50.711697-18.749704-78.886251-12.912296-29.249537-26.974573-51.824179-45.761775-68.748912L768.116326-102.074948c-17.587222-16.912232-38.749386-24.799607-63.311497-24.799607a92.311038 92.311038 0 0 0-64.511479 24.799607l-344.769541 331.244756c-16.42474 16.924732-25.774592 37.174411-25.774592 60.811537m777.48769 327.80731c17.587222-16.874733 38.749386-24.749608 63.311498-24.749608s45.724276 7.874875 63.311497 24.749608 25.824591 37.174411 25.824592 60.861536-8.23737 43.949304-25.824592 60.811537-38.749386 24.799607-63.311497 24.799608-45.724276-7.874875-63.311498-24.799608-25.849591-37.211911-25.849591-60.861536c-1.149982-23.749624 8.18737-43.949304 25.824592-60.861536M25.815579 351.905364l503.079535 482.117367c17.587222 16.924732 42.211832 31.562 71.498868 43.949304C630.893499 890.384339 657.880572 895.99675 682.505182 895.99675h158.309993C816.253064 895.99675 788.053511 890.384339 758.753975 877.972035c-30.499517-12.374804-53.911646-25.91209-71.498868-43.949304l-503.129535-482.117367c-17.587222-18.024715-25.774592-38.286894-25.774592-61.974018s8.18737-43.899305 25.787092-60.811538l329.494783-317.65747a255.958448 255.958448 0 0 0-37.499406-30.449518c-10.599832-6.724894-24.66211-8.999858-41.04935-8.999858a92.298539 92.298539 0 0 0-64.511479 24.799608L25.815579 229.119808A80.798721 80.798721 0 0 0 0.015987 289.931346c0 23.749624 8.18737 43.949304 25.774592 61.974018"  horiz-adv-x="1335" />

    
    <glyph glyph-name="bangzhu" unicode="&#59352;" d="M512-128A512 512 0 1 0 512 896a512 512 0 0 0 0-1024z m0 68.224A443.776 443.776 0 1 1 512 827.776a443.776 443.776 0 0 1 0-887.552z m13.248 694.08c46.656 0 84.48-12.352 113.6-38.656 29.184-25.472 43.648-60.48 43.648-104.128 0-35.648-9.472-65.472-27.648-88.768-6.528-8-27.008-27.008-61.12-56.768a122.496 122.496 0 0 1-30.592-37.824 97.92 97.92 0 0 1-11.648-48.128v-12.352H473.536v12.352c0 26.944 4.288 50.24 14.464 69.12 9.472 20.288 37.12 50.24 82.304 90.24l12.288 13.824c13.184 16.832 20.352 34.176 20.352 53.184 0 25.536-7.296 45.12-21.12 59.648-14.528 14.528-35.648 21.824-61.888 21.824-32.832 0-56.832-10.176-71.36-31.296-13.12-17.472-19.648-42.304-19.648-74.24H352.448c0 53.12 15.36 94.592 45.824 125.184 30.848 31.424 73.152 46.72 126.976 46.72z m-12.992-425.984c15.296 0 28.352-4.288 38.592-14.528 10.176-9.472 15.36-21.76 15.36-37.12 0-15.36-5.824-27.648-16-37.76a54.4 54.4 0 0 0-37.888-14.528 52.16 52.16 0 0 0-37.76 15.296 50.752 50.752 0 0 0-15.36 37.12c0 15.36 5.12 27.648 15.36 37.12a51.136 51.136 0 0 0 37.696 14.464z"  horiz-adv-x="1024" />

    
    <glyph glyph-name="mulu" unicode="&#59355;" d="M203.946667 14.848v-106.666667H0v106.666667h203.946667z m122.453333 0H1024v-106.666667H326.4v106.666667zM0 746.581333V853.333333h203.946667v-106.666666H0z m0-401.578666v106.666666h203.946667v-106.666666H0z m326.4 0v106.666666H1024v-106.666666H326.4z m0 401.578666V853.333333H1024v-106.666666H326.4z"  horiz-adv-x="1024" />

    
    <glyph glyph-name="shouqidaohang" unicode="&#59374;" d="M39.384615 65.299692h939.008v-118.70523H39.384615v118.70523z m302.395077 415.350154h636.612923V361.944615H341.858462V480.649846zM39.384615 896h939.008v-118.626462H39.384615V896z m235.52-296.723692L39.384615 422.360615l235.52-177.388307V599.276308z"  horiz-adv-x="1024" />

    
    <glyph glyph-name="jiegou" unicode="&#59375;" d="M199.920941 396.408471h272.564706v-177.091765h78.546824v177.091765h268.348235v-177.091765h78.305882V483.388235H551.032471V548.743529H472.485647V483.388235H125.891765v-264.131764h74.089411v177.091764z m181.067294-232.990118h261.300706V-97.882353H380.988235v261.300706zM380.988235 865.882353h261.300706v-261.300706H380.988235V865.882353z m351.171765-702.464h261.240471V-97.882353h-261.300706v261.300706zM30.117647 163.418353h261.300706V-97.882353H30.117647v261.300706z"  horiz-adv-x="1024" />

    
    <glyph glyph-name="tixing" unicode="&#59377;" d="M857.531911 63.457099h-27.888918V510.190332A318.967528 318.967528 0 0 1 546.860857 827.307107V857.174415a35.866297 35.866297 0 1 1-71.732593 0v-29.867308A318.967528 318.967528 0 0 1 192.154671 510.190332v-446.733233H164.265754a35.866297 35.866297 0 1 1 0-71.796412h274.932395v-47.864275a71.732593 71.732593 0 1 1 143.465186 0v47.864275h274.868576a35.866297 35.866297 0 1 1 0 71.796412z m-99.557692 0H263.887264V510.190332a247.107296 247.107296 0 0 0 246.979659 247.298753A247.107296 247.107296 0 0 0 758.038038 510.190332v-446.733233z"  horiz-adv-x="1024" />

    
    <glyph glyph-name="pingdingqingkuang" unicode="&#59357;" d="M0 896h1024v-1024H0zM810.653538 810.653538H213.346462c-23.591385 0-42.692923-19.101538-42.692924-42.653538v-768c0-23.552 19.101538-42.653538 42.692924-42.653538h597.307076c23.591385 0 42.692923 19.101538 42.692924 42.653538V768c0 23.552-19.101538 42.653538-42.692924 42.653538zM810.653538 832H213.346462c-35.367385 0-64-28.672-64-64v-768c0-35.328 28.632615-64 64-64h597.307076c35.367385 0 64 28.672 64 64V768c0 35.328-28.632615 64-64 64z m0-42.653538c11.815385 0 21.346462-9.570462 21.346462-21.346462v-768c0-11.815385-9.531077-21.346462-21.346462-21.346462H213.346462a21.346462 21.346462 0 0 0-21.346462 21.346462V768c0 11.815385 9.570462 21.346462 21.346462 21.346462h597.307076zM341.346462 234.653538h341.307076v42.692924H341.346462zM341.346462 106.653538h192v42.692924H341.346462zM469.346462 478.168615L384 563.515077l-30.168615-30.168615 115.515077-115.515077 200.822153 200.861538-30.168615 30.129231z"  horiz-adv-x="1024" />

    
    <glyph glyph-name="jiaoseguanli" unicode="&#59358;" d="M0 896h1024v-1024H0zM298.653538 512a149.346462 149.346462 0 1 1 0 298.653538 149.346462 149.346462 0 0 1 0-298.653538zM298.653538 490.653538a170.653538 170.653538 0 1 1 0 341.346462 170.653538 170.653538 0 0 1 0-341.346462z m0 42.692924a128 128 0 1 0 0 256 128 128 0 0 0 0-256zM725.346462 512a149.346462 149.346462 0 1 1 0 298.653538 149.346462 149.346462 0 0 1 0-298.653538zM725.346462 490.653538a170.653538 170.653538 0 1 1 0 341.346462 170.653538 170.653538 0 0 1 0-341.346462z m0 42.692924a128 128 0 1 0 0 256 128 128 0 0 0 0-256zM106.653538-64v213.346462c0 106.732308 71.798154 192 158.326154 192h107.795693c32.216615 0 61.755077-13.902769 88.024615-37.494154a204.524308 204.524308 0 0 0 32.964923-38.163693l11.027692-18.235077 36.509539 22.134154-11.027692 18.235077a223.704615 223.704615 0 0 1-40.96 47.773539c-33.476923 30.050462-72.467692 48.403692-116.578462 48.403692H265.019077c-111.852308 0-200.979692-105.787077-200.979692-234.653538v-213.346462h42.653538zM538.230154 277.267692a204.012308 204.012308 0 0 0 24.339692 26.742154c25.639385 23.512615 54.311385 37.336615 85.228308 37.336616h109.095384c87.788308 0 160.452923-85.267692 160.452924-192v-213.346462h42.653538v213.346462c0 128.905846-90.112 234.653538-203.106462 234.653538h-109.095384c-43.008 0-81.211077-18.432-114.057846-48.561231a246.350769 246.350769 0 0 1-37.218462-43.204923l-2.126769-3.308308-0.669539-1.142153-0.393846-0.708923-0.551384-1.024-0.551385-1.260308-1.417846-5.632 42.535385-23.748923v15.084307c1.417846 2.048 3.032615 4.332308 4.883692 6.774154zM213.346462 21.346462h618.653538v42.653538H213.346462zM742.754462 2.875077L701.44-39.778462l30.641231-29.696 41.275077 42.653539 67.465846 69.710769-67.662769 68.017231-41.472 41.747692-30.247385-30.089846 41.472-41.747692 38.124308-38.360616zM293.888 81.171692l26.860308 26.781539 15.123692 15.044923-30.089846 30.208-41.984-41.747692-68.804923-68.529231 68.647384-69.474462 26.899693-27.175384 14.966154-15.202462 30.326153 30.011077-41.826461 42.338462-38.793846 39.266461z"  horiz-adv-x="1024" />

    
    <glyph glyph-name="pingdingshenhe" unicode="&#59359;" d="M0 896h1024v-1024H0zM810.653538 810.653538H213.346462c-23.591385 0-42.692923-19.101538-42.692924-42.653538v-768c0-23.552 19.101538-42.653538 42.692924-42.653538h597.307076c23.591385 0 42.692923 19.101538 42.692924 42.653538V768c0 23.552-19.101538 42.653538-42.692924 42.653538zM810.653538 832H213.346462c-35.367385 0-64-28.672-64-64v-768c0-35.328 28.632615-64 64-64h597.307076c35.367385 0 64 28.672 64 64V768c0 35.328-28.632615 64-64 64z m0-42.653538c11.815385 0 21.346462-9.570462 21.346462-21.346462v-768c0-11.815385-9.531077-21.346462-21.346462-21.346462H213.346462a21.346462 21.346462 0 0 0-21.346462 21.346462V768c0 11.815385 9.570462 21.346462 21.346462 21.346462h597.307076zM597.346462 554.653538a106.338462 106.338462 0 0 0-31.271385-75.421538 106.653538 106.653538 0 1 0 31.232 75.421538zM341.346462 234.653538h341.307076v42.692924H341.346462zM341.346462 106.653538h192v42.692924H341.346462z"  horiz-adv-x="1024" />

    
    <glyph glyph-name="jiaosezhanghao" unicode="&#59360;" d="M0 896h1024v-1024H0zM405.346462 469.346462a149.346462 149.346462 0 1 1 0 298.653538 149.346462 149.346462 0 0 1 0-298.653538zM405.346462 448a170.653538 170.653538 0 1 1 0 341.346462 170.653538 170.653538 0 0 1 0-341.346462z m0 42.653538a128 128 0 1 0 0 256 128 128 0 0 0 0-256zM684.622769 728.379077a127.881846 127.881846 0 0 0 62.030769-109.725539 127.881846 127.881846 0 0 0-62.030769-109.725538l-18.274461-11.027692 22.055384-36.509539 18.235077 11.027693a170.535385 170.535385 0 0 1 82.707693 146.235076 170.535385 170.535385 0 0 1-82.707693 146.274462l-18.274461 11.027692-22.016-36.548923 18.274461-11.027692zM85.346462 25.6v-25.6h640v25.6c0 95.586462 0 143.36-18.628924 179.869538a170.692923 170.692923 0 0 1-74.555076 74.594462c-36.509538 18.589538-84.283077 18.589538-179.908924 18.589538H358.4c-95.586462 0-143.36 0-179.869538-18.589538a170.653538 170.653538 0 0 1-74.594462-74.594462c-18.589538-36.509538-18.589538-84.283077-18.589538-179.869538zM64 25.6v-46.946462h682.653538V25.6c0 123.785846-2.363077 153.206154-20.91323 189.558154a192 192 0 0 1-83.889231 83.889231c-36.352 18.510769-65.811692 20.952615-189.597539 20.952615H358.4c-123.746462 0-153.206154-2.402462-189.558154-20.913231a192 192 0 0 1-83.889231-83.889231c-18.510769-36.391385-20.952615-65.811692-20.952615-189.597538z m42.653538-4.253538V25.6c0 115.2 2.244923 142.651077 16.305231 170.180923a149.346462 149.346462 0 0 0 65.260308 65.260308c27.529846 14.060308 54.980923 16.305231 170.180923 16.305231h93.853538c115.2 0 142.651077-2.244923 170.220308-16.305231a149.346462 149.346462 0 0 0 65.260308-65.260308c14.020923-27.529846 16.265846-54.980923 16.265846-170.180923v-4.253538H106.653538zM960-21.346462V25.6c0 123.785846-2.402462 153.206154-20.913231 189.558154a192 192 0 0 1-83.889231 83.889231l-19.022769 9.728-19.377231-38.045539 18.983385-9.688615a149.346462 149.346462 0 0 0 65.260308-65.260308c14.060308-27.529846 16.305231-54.980923 16.305231-170.180923v-46.946462h42.653538z"  horiz-adv-x="1024" />

    
    <glyph glyph-name="pingjialuru" unicode="&#59361;" d="M0 896h1024v-1024H0zM896 810.653538H128c-23.552 0-42.653538-19.101538-42.653538-42.653538v-768c0-23.552 19.101538-42.653538 42.692923-42.653538h768c23.552 0 42.653538 19.101538 42.653538 42.653538V768c0 23.552-19.101538 42.653538-42.692923 42.653538zM896 832H128c-35.328 0-64-28.672-64-64v-768c0-35.328 28.672-64 64.039385-64h768c35.328 0 63.960615 28.672 63.960615 64V768c0 35.328-28.632615 64-64 64z m0-42.653538c11.815385 0 21.346462-9.570462 21.346462-21.346462v-768c0-11.815385-9.570462-21.346462-21.346462-21.346462H128a21.346462 21.346462 0 0 0-21.307077 21.346462V768c0 11.815385 9.531077 21.346462 21.307077 21.346462h768zM405.504 191.803077v-42.653539h330.515692v341.346462h-42.692923v-298.653538zM552.841846 266.633846l-30.168615 30.208-126.188308-126.188308 126.188308-126.148923 30.168615 30.168616-96.019692 95.980307zM810.653538 343.158154l30.168616 30.168615-126.148923 126.188308-126.188308-126.188308 30.168615-30.168615 96.019693 96.019692zM277.346462 832v-896h42.653538V832zM64.039385 575.172923l896 0.866462-0.07877 42.653538-896-0.866461zM149.346462 789.346462h469.307076V832H149.346462zM149.346462-64h469.307076v42.653538H149.346462zM917.346462 746.653538v-256h42.653538v256zM64 746.653538v-256h42.653538v256z"  horiz-adv-x="1024" />

    
    <glyph glyph-name="pingjiaqingkuang" unicode="&#59362;" d="M0 896h1024v-1024H0zM128 0h768V768h-256c-28.238769-67.347692-70.892308-101.060923-128-101.060923s-99.761231 33.673846-128 101.060923h-256v-768zM106.653538-21.346462h810.692924V789.346462H625.821538l-5.513846-13.115077c-25.127385-59.982769-60.573538-87.985231-108.307692-87.985231s-83.180308 28.002462-108.307692 87.985231l-5.513846 13.115077H106.653538v-810.692924z m42.692924 42.692924V746.653538h220.829538C401.723077 680.408615 449.536 645.592615 512 645.592615c62.464 0 110.276923 34.816 141.824 101.060923h220.829538v-725.307076H149.346462zM320 414.168615L289.831385 384l158.168615-158.168615 286.168615 286.168615-30.168615 30.168615-256-256z"  horiz-adv-x="1024" />

    
    <glyph glyph-name="rendingshenhe" unicode="&#59363;" d="M0 896h1024v-1024H0zM170.653538 810.653538m42.653539 0l597.346461 0q42.653538 0 42.653539-42.653538l0-768.039385q0-42.653538-42.653539-42.653538l-597.346461 0q-42.653538 0-42.653539 42.653538l0 768.039385q0 42.653538 42.653539 42.653538ZM213.346462 832h597.307076c35.367385 0 64-28.672 64-64v-768c0-35.328-28.632615-64-64-64H213.346462a64 64 0 0 0-64 64V768c0 35.328 28.632615 64 64 64z m0-42.653538c-11.815385 0-21.346462-9.570462-21.346462-21.346462v-768c0-11.815385 9.570462-21.346462 21.346462-21.346462h597.307076c11.815385 0 21.346462 9.570462 21.346462 21.346462V768c0 11.815385-9.570462 21.346462-21.346462 21.346462H213.346462zM426.653538 576h298.692924V618.653538h-298.692924zM426.653538 362.653538h298.692924v42.692924h-298.692924zM426.653538 149.346462h298.692924v42.653538h-298.692924zM320 554.653538a42.653538 42.653538 0 1 1 0 85.346462 42.653538 42.653538 0 0 1 0-85.346462zM320 341.346462a42.653538 42.653538 0 1 1 0 85.307076 42.653538 42.653538 0 0 1 0-85.307076zM320 128a42.653538 42.653538 0 1 1 0 85.346462 42.653538 42.653538 0 0 1 0-85.346462z"  horiz-adv-x="1024" />

    
    <glyph glyph-name="pingjiamoban" unicode="&#59364;" d="M0 896h1024v-1024H0zM896 789.346462H128v-170.692924h768zM896 469.346462H128v-170.692924h768zM896 149.346462H128v-170.692924h768zM917.346462 810.653538H106.653538v-213.307076h810.692924V810.653538zM874.653538 640H149.346462V768h725.307076V640zM917.346462 490.653538H106.653538v-213.307076h810.692924v213.307076z m-42.692924-42.653538v-128H149.346462v128h725.307076zM917.346462 170.653538H106.653538v-213.307076h810.692924v213.307076z m-42.692924-170.653538H149.346462V128h725.307076v-128z"  horiz-adv-x="1024" />

    
    <glyph glyph-name="shangbaoqingkuang" unicode="&#59365;" d="M0 896h1024v-1024H0zM85.346462 810.653538m64 0l725.346461 0q64 0 64-64l0-725.346461q0-64-64-64l-725.346461 0q-64 0-64 64l0 725.346461q0 64 64 64ZM149.346462 832h725.307076c47.143385 0 85.346462-38.203077 85.346462-85.346462v-725.307076c0-47.143385-38.203077-85.346462-85.346462-85.346462H149.346462a85.346462 85.346462 0 0 0-85.346462 85.346462V746.653538c0 47.143385 38.203077 85.346462 85.346462 85.346462z m0-42.653538c-23.591385 0-42.692923-19.101538-42.692924-42.692924v-725.307076c0-23.591385 19.101538-42.692923 42.692924-42.692924h725.307076c23.591385 0 42.692923 19.101538 42.692924 42.692924V746.653538c0 23.591385-19.101538 42.692923-42.692924 42.692924H149.346462zM349.499077 64h325.001846l42.692923 85.346462h242.806154v42.653538H690.806154l-42.653539-85.346462H375.847385L333.193846 192H64v-42.653538H306.806154zM960 21.346462V426.653538h-42.653538v-405.307076zM106.653538 21.346462V426.653538H64v-405.307076zM320 533.346462h384V576h-384zM320 362.653538h384v42.692924h-384z"  horiz-adv-x="1024" />

    
    <glyph glyph-name="ruzhuqiye" unicode="&#59366;" d="M0 896h1024v-1024H0zM512 725.346462l426.653538-277.346462v-490.653538H85.346462V448zM512 750.788923l448-291.209846v-523.579077H64V459.579077L512 750.788923z m0-50.884923L106.653538 436.381538v-457.767384h810.692924V436.420923L512 699.904zM277.346462 286.838154l128 79.990154v-430.828308h42.653538V443.825231l-213.346462-133.316923v-374.508308h42.692924zM746.653538 286.838154v-350.838154h42.692924v374.508308l-213.346462 133.316923v-507.825231h42.653538v430.867692zM896-21.346462H149.346462v-42.653538H896z"  horiz-adv-x="1024" />

    
    <glyph glyph-name="rendingqingkuang" unicode="&#59367;" d="M0 896h1024v-1024H0zM170.653538 768c0 23.552 19.101538 42.653538 42.692924 42.653538H640l213.346462-213.307076V0c0-23.552-19.101538-42.653538-42.692924-42.653538H213.346462a42.653538 42.653538 0 0 0-42.692924 42.653538V768zM149.346462 768c0 35.328 28.632615 64 64 64h435.475692l225.831384-225.831385V0c0-35.328-28.632615-64-64-64H213.346462a64 64 0 0 0-64 64V768z m481.831384 21.346462H213.307077c-11.736615 0-21.307077-9.570462-21.307077-21.346462v-768c0-11.815385 9.570462-21.346462 21.346462-21.346462h597.307076c11.815385 0 21.346462 9.570462 21.346462 21.346462V588.484923l-200.861538 200.861539zM320 448h384v42.653538h-384zM320 277.346462h384v42.653538h-384z"  horiz-adv-x="1024" />

    
    <glyph glyph-name="pingjiashenhe" unicode="&#59368;" d="M0 896h1024v-1024H0zM896 64V704c0 35.328-28.672 64-64 64H192c-35.328 0-64-28.672-64-64v-640c0-35.328 28.672-64 64-64h640c35.328 0 64 28.672 64 64zM917.346462 64V704c0 47.143385-38.203077 85.346462-85.346462 85.346462H192c-47.143385 0-85.346462-38.203077-85.346462-85.346462v-640c0-47.143385 38.203077-85.346462 85.346462-85.346462h640c47.143385 0 85.346462 38.203077 85.346462 85.346462z m-42.692924 0c0-23.552-19.101538-42.653538-42.653538-42.653538H192a42.653538 42.653538 0 0 0-42.653538 42.653538V704c0 23.552 19.101538 42.653538 42.653538 42.653538h640c23.552 0 42.653538-19.101538 42.653538-42.653538v-640zM512 505.265231l-61.794462-126.109539-140.327384-20.322461 101.651692-99.367385-24.300308-138.24L512 187.825231l124.770462-66.56-24.14277 138.24 101.494154 99.367384-139.539692 20.322462zM264.113231 373.76l124.455384-121.698462-29.932307-170.220307L512 163.603692l153.284923-81.723077-29.696 170.180923 124.219077 121.659077-171.086769 24.930462-76.839385 154.860308-75.854769-154.860308-171.913846-24.891077z m296.329846-14.099692l107.953231-15.753846-78.690462-77.075693 18.510769-106.180923L512 211.889231l-96.177231-51.239385 18.668308 106.141539-78.808615 77.075692 108.701538 15.753846 47.734154 97.358769 48.324923-97.358769zM369.427692 605.184h285.144616V647.876923H369.427692z"  horiz-adv-x="1024" />

    
    <glyph glyph-name="tuiyuanshenqing" unicode="&#59369;" d="M0 896h1024v-1024H0zM426.653538 810.653538v-853.307076l469.346462 128V682.653538zM405.346462 838.616615v-909.23323l512 139.657846V698.958769l-512 139.657846z m42.653538-55.886769L874.653538 666.387692v-564.775384l-426.653538-116.342154V782.729846zM106.653538 704h341.346462v-640H106.653538V704z m42.692924-42.653538v-554.692924h256V661.346462h-256zM576 448v-128h42.653538v128z"  horiz-adv-x="1024" />

    
    <glyph glyph-name="shangbaoshenhe" unicode="&#59370;" d="M0 896h1024v-1024H0zM85.346462 810.653538m64 0l725.346461 0q64 0 64-64l0-725.346461q0-64-64-64l-725.346461 0q-64 0-64 64l0 725.346461q0 64 64 64ZM149.346462 832h725.307076c47.143385 0 85.346462-38.203077 85.346462-85.346462v-725.307076c0-47.143385-38.203077-85.346462-85.346462-85.346462H149.346462a85.346462 85.346462 0 0 0-85.346462 85.346462V746.653538c0 47.143385 38.203077 85.346462 85.346462 85.346462z m0-42.653538c-23.591385 0-42.692923-19.101538-42.692924-42.692924v-725.307076c0-23.591385 19.101538-42.692923 42.692924-42.692924h725.307076c23.591385 0 42.692923 19.101538 42.692924 42.692924V746.653538c0 23.591385-19.101538 42.692923-42.692924 42.692924H149.346462zM349.499077 64h325.001846l42.692923 85.346462h242.806154v42.653538H690.806154l-42.653539-85.346462H375.847385L333.193846 192H64v-42.653538H306.806154zM960 21.346462V426.653538h-42.653538v-405.307076zM106.653538 21.346462V426.653538H64v-405.307076zM682.653538 439.138462l30.168616 30.208L512 670.168615l-200.861538-200.861538 30.208-30.129231L512 609.831385zM533.346462 234.653538V640h-42.692924v-405.346462z"  horiz-adv-x="1024" />

    
    <glyph glyph-name="yuanquzhanghao" unicode="&#59371;" d="M0 896h1024v-1024H0zM85.346462 469.346462L512 768l426.653538-298.653538V0H85.346462zM64 480.452923L512 793.993846l448-313.580308v-501.76H64v501.76z m42.653538-22.212923v-436.893538h810.692924V458.24L512 741.966769 106.653538 458.24zM285.735385 311.611077a320 320 0 0 0 452.52923 0l15.084308-15.084308 30.168615 30.168616-15.084307 15.084307a362.692923 362.692923 0 0 1-512.866462 0l-15.084307-15.084307 30.168615-30.168616 15.084308 15.084308zM406.409846 190.936615a149.346462 149.346462 0 0 0 211.180308 0l15.084308-15.084307 30.168615 30.168615-15.084308 15.084308a192 192 0 0 1-271.517538 0l-15.084308-15.084308 30.168615-30.168615 15.084308 15.084307z"  horiz-adv-x="1024" />

    
    <glyph glyph-name="zhengwuzhanghao" unicode="&#59372;" d="M0 896h1024v-1024H0zM512 640m-170.653538 0a170.653538 170.653538 0 1 1 341.307076 0 170.653538 170.653538 0 1 1-341.307076 0ZM512 448a192 192 0 1 1 0 384 192 192 0 0 1 0-384z m0 42.653538a149.346462 149.346462 0 1 0 0 298.692924 149.346462 149.346462 0 0 0 0-298.692924zM917.346462-42.653538c0 223.862154-181.484308 405.307077-405.346462 405.307076S106.653538 181.208615 106.653538-42.653538v-21.346462h42.692924v21.346462a362.653538 362.653538 0 0 0 725.307076 0v-21.346462h42.692924v21.346462zM512-42.653538l85.346462 106.653538L512 341.346462l-85.346462-277.346462zM512-76.8l109.056 136.270769L512 413.932308l-109.056-354.422154L512-76.8z m-61.636923 145.329231L512 268.8l61.636923-200.270769L512-8.507077l-61.636923 77.036308z"  horiz-adv-x="1024" />

    
    <glyph glyph-name="xinxigonggao" unicode="&#59378;" d="M0 896h1024v-1024H0zM448 64v213.346462h298.653538v170.653538h213.346462v-384h-119.177846l-72.822154-72.861538-72.861538 72.861538h-247.138462z m42.653538 42.653538H712.861538l55.177847-55.138461 55.138461 55.138461h94.208v298.692924h-128v-170.692924h-298.692923v-128zM85.346462 768H768v-512H362.653538l-85.307076-85.346462-85.346462 85.346462H85.346462zM64 234.653538V789.346462h725.346462v-554.692924H371.475692l-94.12923-94.12923-94.168616 94.12923H64z m42.653538 512v-469.307076H200.861538l76.524308-76.524308 76.484923 76.524308h392.822154V746.653538H106.653538zM384 490.653538h64V533.346462H384zM533.346462 490.653538h64V533.346462h-64zM234.653538 490.653538h64V533.346462H234.653538z"  horiz-adv-x="1024" />

    
    <glyph glyph-name="yuanquxinxi" unicode="&#59379;" d="M0 896h1024v-1024H0zM362.653538 597.346462L938.653538 384v-426.653538H362.653538zM341.346462 627.987692l618.653538-229.139692v-462.848H341.346462V627.987692zM384 566.665846v-588.012308h533.346462v390.498462L384 566.665846zM106.653538-21.346462V373.484308l285.932308 219.963077-25.993846 33.792-302.592-232.763077v-458.476308H384v42.653538zM725.346462 197.947077v-261.947077H768v292.706462l-234.653538 78.217846v-370.924308h42.653538V247.729231zM960-21.346462H341.346462v-42.653538h618.653538z"  horiz-adv-x="1024" />

    
    <glyph glyph-name="jixiaopingjia1" unicode="&#59380;" d="M0 896h1024v-1024H0zM512 384m-426.653538 0a426.653538 426.653538 0 1 1 853.307076 0 426.653538 426.653538 0 1 1-853.307076 0ZM512-64c247.414154 0 448 200.585846 448 448S759.414154 832 512 832 64 631.414154 64 384 264.585846-64 512-64z m0 42.653538C288.137846-21.346462 106.653538 160.137846 106.653538 384S288.137846 789.346462 512 789.346462 917.346462 607.862154 917.346462 384 735.862154-21.346462 512-21.346462zM277.346462 277.346462v213.307076l128-64L512 576l106.653538-149.346462 128 64v-213.307076zM625.427692 453.907692l142.572308 71.286154v-269.193846h-512V525.193846l142.572308-71.286154L512 612.706462l113.427692-158.79877z m99.91877-155.254154v157.499077l-113.427693-56.713846L512 539.293538l-99.918769-139.854769-113.427693 56.713846v-157.499077h426.692924z"  horiz-adv-x="1024" />

    
    <glyph glyph-name="jibenxinxi" unicode="&#59382;" d="M0 896h1024v-1024H0zM938.653538 384c0-235.638154-191.015385-426.653538-426.653538-426.653538H85.346462V384C85.346462 619.638154 276.361846 810.653538 512 810.653538c235.638154 0 426.653538-191.015385 426.653538-426.653538zM960 384c0-247.414154-200.585846-448-448-448H64V384C64 631.414154 264.585846 832 512 832S960 631.414154 960 384zM512-21.346462c223.862154 0 405.346462 181.484308 405.346462 405.346462S735.862154 789.346462 512 789.346462 106.653538 607.862154 106.653538 384v-405.346462H512zM277.346462 490.653538h426.653538V533.346462H277.346462zM277.346462 320h426.653538v42.653538H277.346462zM277.346462 149.346462h256v42.653538h-256z"  horiz-adv-x="1024" />

    
    <glyph glyph-name="yuanqubiaoqian" unicode="&#59383;" d="M0 896h1024v-1024H0zM277.346462 725.346462h640v-640H256v-42.692924h704V768H234.653538v-192h42.692924zM192 554.653538h469.346462v-469.307076H170.653538v-42.692924h533.346462V597.346462H149.346462v-192h42.653538zM85.346462 405.346462h341.346461v-341.346462H85.346462zM64 426.653538h384v-384h-384v384z m42.653538-341.307076h298.692924V384H106.653538v-298.653538z"  horiz-adv-x="1024" />

    
    <glyph glyph-name="biangengjilu" unicode="&#59384;" d="M0 896h1024v-1024H0zM490.653538 810.653538v-490.653538H938.535385l0.118153 490.653538zM469.346462 832v-533.346462H959.803077l0.157538 533.346462H469.346462zM512 789.346462h405.346462l-0.157539-448H512V789.346462zM682.771692-21.346462h-284.750769c-37.179077 0-70.380308 13.745231-91.963077 42.417231-18.353231 24.418462-28.632615 59.628308-28.632615 106.929231V384H234.771692v-256c0-56.044308 12.878769-100.233846 37.179077-132.568615 30.404923-40.408615 76.406154-59.431385 126.070154-59.431385h284.750769v42.653538zM426.968615 161.870769l30.168616 30.168616-201.058462 200.782769-200.900923-200.822154 30.129231-30.168615 170.811077 170.692923zM618.653538 469.346462h192V512h-192zM618.653538 618.653538h192V661.346462h-192z"  horiz-adv-x="1024" />

    
    <glyph glyph-name="ruzhuqiye2" unicode="&#59385;" d="M0 896h1024v-1024H0zM64-21.346462h896v42.692924H64zM170.653538 341.346462m42.653539 0l85.346461 0q42.653538 0 42.653539-42.653539l0-256.039385q0-42.653538-42.653539-42.653538l-85.346461 0q-42.653538 0-42.653539 42.653538l0 256.039385q0 42.653538 42.653539 42.653539ZM213.346462 362.653538h85.307076c35.367385 0 64-28.632615 64-64v-256c0-35.328-28.632615-64-64-64H213.346462a64 64 0 0 0-64 64v256c0 35.367385 28.632615 64 64 64z m0-42.653538c-11.815385 0-21.346462-9.570462-21.346462-21.346462v-256c0-11.776 9.570462-21.307077 21.346462-21.307076h85.307076c11.815385 0 21.346462 9.531077 21.346462 21.307076v256c0 11.815385-9.570462 21.346462-21.346462 21.346462H213.346462zM234.653538 149.346462h64v42.653538H234.653538zM341.346462 810.653538m42.653538 0l426.692923 0q42.653538 0 42.653539-42.653538l0-725.346462q0-42.653538-42.653539-42.653538l-426.692923 0q-42.653538 0-42.653538 42.653538l0 725.346462q0 42.653538 42.653538 42.653538ZM384 832h426.653538c35.367385 0 64-28.672 64-64v-725.346462c0-35.328-28.632615-64-64-64H384a64 64 0 0 0-64 64V768c0 35.328 28.672 64 64 64z m0-42.653538c-11.815385 0-21.346462-9.570462-21.346462-21.346462v-725.346462c0-11.776 9.570462-21.307077 21.346462-21.307076h426.653538c11.815385 0 21.346462 9.531077 21.346462 21.307076V768c0 11.815385-9.570462 21.346462-21.346462 21.346462H384zM469.346462 682.653538h85.346461v-85.346461h-85.346461zM640 682.653538h85.346462v-85.346461H640zM469.346462 533.346462h85.346461v-85.346462h-85.346461zM640 533.346462h85.346462v-85.346462H640zM640 384h85.346462v-85.346462H640zM640 234.653538h85.346462v-85.346461H640z"  horiz-adv-x="1024" />

    
    <glyph glyph-name="yuanqujianjie" unicode="&#59386;" d="M0 896h1024v-1024H0zM128 768m64 0l640 0q64 0 64-64l0-640q0-64-64-64l-640 0q-64 0-64 64l0 640q0 64 64 64ZM192 789.346462h640c47.143385 0 85.346462-38.203077 85.346462-85.346462v-640c0-47.143385-38.203077-85.346462-85.346462-85.346462H192a85.346462 85.346462 0 0 0-85.346462 85.346462V704c0 47.143385 38.203077 85.346462 85.346462 85.346462z m0-42.692924c-23.552 0-42.653538-19.101538-42.653538-42.653538v-640c0-23.552 19.101538-42.653538 42.653538-42.653538h640c23.552 0 42.653538 19.101538 42.653538 42.653538V704c0 23.552-19.101538 42.653538-42.653538 42.653538H192zM746.653538 405.346462H277.346462v-42.692924h469.307076zM746.653538 597.346462H277.346462v-42.692924h469.307076zM746.653538 213.346462H277.346462v-42.692924h469.307076z"  horiz-adv-x="1024" />

    
    <glyph glyph-name="xingjipingding" unicode="&#59387;" d="M0 896h1024v-1024H0zM532.283077-7.68l116.578461 255.803077 270.690462 79.36-208.344615 189.44 7.876923 280.812308-245.366154-138.752-265.846154 94.208 56.713846-275.180308-172.150154-222.601846 280.418462-31.350154zM664.260923 230.4l297.747692 87.276308-229.218461 208.423384 8.664615 308.775385-269.784615-152.536615-292.352 103.581538 62.345846-302.631385-189.361231-244.854153 308.460308-34.461539 175.261538-254.818461 128.236308 281.206153z m-135.758769-194.953846l-143.635692 208.738461-252.337231 28.23877 154.899692 200.270769-51.042461 247.729231 239.340307-84.795077 220.947693 124.928-7.089231-252.849231 187.470769-170.456615L633.540923 265.846154l-104.999385-230.4zM741.612308 126.818462l200.900923-200.073847 30.129231 30.28677-200.940308 199.995077z"  horiz-adv-x="1024" />

    
    <glyph glyph-name="yunhangshuju" unicode="&#59388;" d="M0 896h1024v-1024H0zM874.653538 597.346462L512 810.653538 149.346462 597.346462v-426.692924L512-42.653538l362.653538 213.307076zM896 609.555692L512 835.426462 128 609.555692v-451.072L512-67.426462l384 225.910154V609.555692z m-42.653538-426.692923L512-17.92l-341.346462 200.782769V585.137231L512 785.92l341.346462-200.782769v-402.274462zM490.653538 448v-213.346462h42.692924v213.346462zM661.346462 533.346462v-298.692924h42.653538V533.346462zM320 362.653538v-128h42.653538v128z"  horiz-adv-x="1024" />

    
    <glyph glyph-name="yuanqurending" unicode="&#59389;" d="M0 896h1024v-1024H0zM486.4 806.360615L94.129231 414.168615a42.653538 42.653538 0 0 1 0-60.33723l392.192-392.192a42.653538 42.653538 0 0 1 60.376615 0l392.192 392.192a42.653538 42.653538 0 0 1 0 60.33723l-392.192 392.192a42.653538 42.653538 0 0 1-60.376615 0zM79.084308 429.252923a64 64 0 0 1 0-90.505846l392.192-392.192a64 64 0 0 1 90.54523 0l392.192 392.192a64 64 0 0 1 0 90.505846l-392.192 392.192a64 64 0 0 1-90.54523 0L79.084308 429.292308z m452.52923 362.023385l392.231385-392.192a21.346462 21.346462 0 0 0 0-30.168616l-392.231385-392.192a21.346462 21.346462 0 0 0-30.168615 0l-392.192 392.192a21.346462 21.346462 0 0 0 0 30.168616l392.192 392.192a21.346462 21.346462 0 0 0 30.168615 0zM512 192a192 192 0 1 1 0 384 192 192 0 0 1 0-384z m0 42.653538a149.346462 149.346462 0 1 0 0 298.692924 149.346462 149.346462 0 0 0 0-298.692924z"  horiz-adv-x="1024" />

    
    <glyph glyph-name="yunyingxinxi" unicode="&#59390;" d="M0 896h1024v-1024H0zM448 64v213.346462h298.653538v170.653538h213.346462v-384h-119.177846l-72.822154-72.861538-72.861538 72.861538h-247.138462z m42.653538 42.653538H712.861538l55.177847-55.138461 55.138461 55.138461h94.208v298.692924h-128v-170.692924h-298.692923v-128zM85.346462 768H768v-512H362.653538l-85.307076-85.346462-85.346462 85.346462H85.346462zM64 234.653538V789.346462h725.346462v-554.692924H371.475692l-94.12923-94.12923-94.168616 94.12923H64z m42.653538 512v-469.307076H200.861538l76.524308-76.524308 76.484923 76.524308h392.822154V746.653538H106.653538zM234.653538 405.346462h170.692924v42.653538H234.653538zM234.653538 576h298.692924V618.653538H234.653538z"  horiz-adv-x="1024" />

    
    <glyph glyph-name="shaixuan3x" unicode="&#59391;" d="M879.030857 664.576c5.851429 5.851429 12.434286 12.434286 16.822857 20.041143 32.182857 39.936 35.986286 100.425143 8.923429 144.310857C877.714286 873.106286 837.266286 895.561143 784.969143 895.561143H137.362286c-12.507429 0-25.453714 0-36.790857-3.510857a131.364571 131.364571 0 0 1-71.241143-46.08c-18.651429-23.186286-28.818286-52.004571-29.037715-81.700572 0-37.814857 14.482286-71.387429 40.740572-94.573714a19949.056 19949.056 0 0 0 246.784-243.931429v-265.508571l0.146286-2.194286c4.388571-34.962286 30.939429-54.125714 63.049142-40.228571l0.585143 0.219428c17.408 8.704 27.355429 26.185143 27.355429 47.981715V439.076571c0 18.432-5.705143 33.426286-16.822857 44.617143a5866.057143 5866.057143 0 0 0-118.052572 122.368 6565.741714 6565.741714 0 0 1-122.953143 127.341715l-2.194285 2.194285-2.56 1.243429a23.844571 23.844571 0 0 0-2.852572 3.437714 61.732571 61.732571 0 0 1-3.218285 3.949714c-7.387429 9.508571-8.996571 17.554286-5.558858 28.233143 5.997714 13.604571 17.993143 29.110857 32.548572 29.110857h653.385143c8.045714 0 15.652571-4.242286 21.650285-12.141714a41.398857 41.398857 0 0 0 7.460572-35.181714c-1.682286-6.509714-4.388571-9.435429-12.507429-17.554286-89.965714-87.04-175.908571-173.056-266.971428-264.045714l-0.438857-0.438857a60.196571 60.196571 0 0 1-19.748572-44.690286v-458.825143c0-5.632 0-21.504 11.556572-34.230857 0 0 3.510857-8.045714 18.797714-13.750857 18.797714-7.168 37.083429 1.024 37.083428 1.024l4.827429 3.510857c18.797714 14.116571 18.797714 36.132571 18.797714 49.298286V408.429714c45.056 44.836571 91.648 88.502857 136.777143 130.706286a5321.142857 5321.142857 0 0 1 130.925714 125.44h0.146286z m100.498286-587.922286h-246.857143a40.813714 40.813714 0 0 1-41.179429-41.252571v-11.556572c0-25.819429 20.918857-41.252571 41.252572-41.252571h246.784a40.886857 40.886857 0 0 1 41.252571 41.252571v11.629715c0 24.649143-16.603429 41.252571-41.252571 41.252571v-0.073143z m0 148.114286h-246.857143a40.813714 40.813714 0 0 1-41.179429-41.252571v-8.777143c0-25.746286 20.918857-41.106286 41.252572-41.106286h246.784a40.886857 40.886857 0 0 1 41.252571 41.252571v8.630858a40.813714 40.813714 0 0 1-41.252571 41.252571z m0 142.262857h-246.857143a40.813714 40.813714 0 0 1-41.179429-41.252571v-5.705143c0-25.819429 20.918857-41.252571 41.252572-41.252572h246.784a40.886857 40.886857 0 0 1 41.252571 41.252572v5.705143c0 24.649143-16.603429 41.252571-41.252571 41.252571z"  horiz-adv-x="1024" />

    
    <glyph glyph-name="wenhao" unicode="&#58989;" d="M510.976694 827.048605c-244.100484 0-442.064184-197.963701-442.064184-442.064184s197.963701-442.064184 442.064184-442.064184 442.064184 197.963701 442.064184 442.064184S755.077178 827.048605 510.976694 827.048605L510.976694 827.048605 510.976694 827.048605zM508.133949 75.642027c-35.976376 0-65.24805 28.656667-65.24805 63.922868 0 35.261085 29.167297 63.921845 65.24805 63.921845 35.970236 0 65.240887-28.66076 65.240887-63.921845C573.374836 104.298693 544.207539 75.642027 508.133949 75.642027L508.133949 75.642027 508.133949 75.642027zM683.33011 437.319369c-12.801561-20.12127-39.940664-47.456848-81.602529-82.112136-21.545712-17.884322-34.957163-32.313963-40.142256-43.290969-5.179976-10.871605-7.621585-30.387078-7.116071-58.538231l-92.880387 0c-0.203638 13.314237-0.406253 21.446451-0.406253 24.394596 0 30.079062 4.977361 54.771441 14.936177 74.182536 9.957793 19.411095 29.876448 41.259706 59.654658 65.445548 29.777187 24.289196 47.660486 40.142256 53.456492 47.660486 8.94165 11.888771 13.510712 24.99937 13.510712 39.23049 0 19.814278-8.022721 36.783765-23.877827 51.009767-15.85306 14.126742-37.398772 21.242813-64.328098 21.242813-26.016537 0-47.765887-7.41897-65.242933-22.156626-17.480116-14.731516-32.520671-47.254234-36.078707-67.375503-3.354398-19.004843-94.915743-27.033703-93.799316 11.482519 1.116427 38.516222 21.139459 80.282464 55.486732 110.565165 34.352389 30.283724 79.472006 45.428655 135.261637 45.428655 58.742892 0 105.385189-15.347546 140.140761-46.033429 34.754548-30.689976 52.033074-66.36243 52.033074-107.111506C702.434214 478.783737 696.033433 457.441663 683.33011 437.319369L683.33011 437.319369 683.33011 437.319369zM683.33011 437.319369"  horiz-adv-x="1024" />

    
    <glyph glyph-name="shouye1" unicode="&#58893;" d="M189.12 493.376v-437.952h145.472V298.816h353.92v-243.392h146.368V493.376L512 693.44 189.12 493.44zM512 800l416-260.992V-32H595.392v243.392h-167.68V-32H96V539.008L512 800z"  horiz-adv-x="1024" />

    
    <glyph glyph-name="xiaoxi" unicode="&#58924;" d="M442.304 832H581.76c204.16 0 370.56-166.528 378.048-374.912l0.256-14.592v-23.232c0-130.88-112.768-266.24-333.44-413.184l-20.992-13.824L517.056-64v116.992H442.24C233.408 52.992 64 227.328 64 442.496c0 210.24 161.792 381.568 364.16 389.248L442.24 832zM581.76 741.632H442.24c-160.448 0-290.56-133.952-290.56-299.136 0-160.64 123.008-291.712 277.312-298.88l13.248-0.256h162.56v-43.84c173.44 119.68 261.184 225.024 267.008 310.656l0.32 9.088v23.232c0 165.184-130.048 299.136-290.56 299.136zM386.56 500.48c30.784 0 55.744-25.728 55.744-57.408s-24.96-57.408-55.68-57.408a56.576 56.576 0 0 0-55.744 57.408c0 31.68 24.96 57.408 55.68 57.408z m250.88 0c30.72 0 55.68-25.728 55.68-57.408s-24.96-57.408-55.68-57.408a56.576 56.576 0 0 0-55.744 57.408c0 31.68 24.96 57.408 55.68 57.408z"  horiz-adv-x="1024" />

    
    <glyph glyph-name="shanchu2" unicode="&#59007;" d="M512 864C243.2 864 32 652.8 32 384s211.2-480 480-480 480 211.2 480 480S780.8 864 512 864z m192-512H320c-19.2 0-32 12.8-32 32s12.8 32 32 32h384c19.2 0 32-12.8 32-32s-12.8-32-32-32z"  horiz-adv-x="1024" />

    
    <glyph glyph-name="zhiding" unicode="&#58923;" d="M0-128V896h1024L0-128zM213.333333 533.333333h102.4V341.333333h55.466667V533.333333H469.333333l-128 128-128-128zM128 768v-64h426.666667V768H128z"  horiz-adv-x="1024" />

    
    <glyph glyph-name="kefu2" unicode="&#58904;" d="M0 384c0-283.106 228.894-512 512-512s512 228.894 512 512S795.106 896 512 896C228.894 892.988 0 664.094 0 384z m0 0M638.494 124.988C632.471 128 626.447 128 620.424 128 584.282 115.953 548.14 109.93 512 109.93c-177.694 0-319.247 126.494-319.247 280.094S337.318 670.118 512 670.118c177.694 0 319.247-126.494 319.247-280.094 0-84.33-45.176-162.636-111.435-213.836-6.024-3.012-9.036-12.047-6.024-18.07l15.06-60.236c3.01-18.07-3.013-24.094-21.083-15.058l-69.27 42.164z m0 0M638.494 308.706c0-3.012-36.141-87.341-126.494-87.341-93.365 0-126.494 84.33-126.494 87.34-3.012 9.036 0 18.071 9.035 24.095 9.035 3.012 18.07 0 21.083-9.035 18.07-42.165 57.223-66.26 96.376-66.26 69.27 0 96.376 66.26 96.376 66.26 3.012 6.023 6.024 9.035 12.048 12.047 6.023 0 12.047-3.012 15.058-6.024 3.012-6.023 6.024-15.059 3.012-21.082z m0 0"  horiz-adv-x="1024" />

    
    <glyph glyph-name="didian" unicode="&#59011;" d="M530.528 793.984c-140.352 0-254.112-113.76-254.112-254.112s136.736-316.032 254.112-458.976c114.368 145.216 254.112 318.656 254.112 458.976S670.88 793.984 530.528 793.984zM530.528 371.52c-92.96 0-168.352 75.36-168.352 168.352 0 92.96 75.36 168.352 168.352 168.352s168.352-75.36 168.352-168.352C698.88 446.88 623.488 371.52 530.528 371.52zM530.528 539.84m-96.32 0a3.01 3.01 0 1 0 192.64 0 3.01 3.01 0 1 0-192.64 0ZM532-30.464c-163.616 0-329.248 51.616-329.248 150.304 0 54.56 54.88 101.152 150.592 127.84 16.608 4.64 33.888-5.088 38.528-21.728 4.64-16.672-5.088-33.888-21.728-38.528-72.064-20.096-104.896-49.12-104.896-67.584 0-35.808 103.936-87.808 266.752-87.808s266.752 52 266.752 87.808c0 19.968-38.304 50.176-111.52 69.376-16.672 4.384-26.688 21.472-22.304 38.176 4.384 16.672 21.44 26.72 38.176 22.304 100.512-26.336 158.144-73.696 158.144-129.888C861.248 21.152 695.616-30.464 532-30.464z"  horiz-adv-x="1024" />

    
    <glyph glyph-name="chenggong1" unicode="&#58994;" d="M510.84 893.645C228.692 893.645 0 664.95 0 382.839S228.693-128 510.84-128c282.111 0 510.805 228.693 510.805 510.84 0 282.077-228.694 510.77-510.806 510.77z m249.617-379.017L455.168 209.476a27.273 27.273 0 0 0-19.285-7.885h-1.23a27.273 27.273 0 0 0-19.284 7.851l-0.922 0.922-153.259 153.258c-10.922 10.923-10.513 29.219 0.922 40.62 11.435 11.468 29.696 11.877 40.619 0.955l132.54-132.54 283.545 283.546c10.923 10.922 29.184 10.513 40.619-0.922 11.468-11.435 11.946-29.696 1.024-40.619z"  horiz-adv-x="1024" />

    
    <glyph glyph-name="1" unicode="&#58881;" d="M512 862.976C247.424 862.976 33.024 648.576 33.024 384c0-264.512 214.464-478.976 478.976-478.976 264.512 0 478.976 214.528 478.976 478.976C990.976 648.576 776.512 862.976 512 862.976zM676.416 131.00800000000004L512 217.34400000000005l-164.416-86.4 31.424 183.04L245.952 443.712l183.872 26.688L512 637.056l82.24-166.592 183.808-26.688-133.056-129.664L676.416 131.00800000000004z"  horiz-adv-x="1024" />

    
    <glyph glyph-name="jujigaoxinjishuqiye" unicode="&#59571;" d="M512 64c177.067 0 320 142.933 320 320S689.067 704 512 704 192 561.067 192 384s142.933-320 320-320zM290.133 256H384c10.667-40.533 25.6-78.933 44.8-113.067-57.6 19.2-106.667 59.734-138.667 113.067zM512 130.133c-25.6 38.4-46.933 81.067-61.867 125.867h121.6c-12.8-44.8-34.133-87.467-59.733-125.867z m83.2 12.8C614.4 179.2 629.333 217.6 640 256h93.867c-32-53.333-81.067-93.867-138.667-113.067zM759.467 448c4.266-21.333 8.533-42.667 8.533-64s-2.133-42.667-8.533-64h-108.8c2.133 21.333 4.266 42.667 4.266 64s-2.133 42.667-4.266 64h108.8z m-25.6 64H640c-10.667 40.533-25.6 78.933-44.8 113.067 57.6-19.2 106.667-59.734 138.667-113.067zM512 637.867c27.733-38.4 46.933-81.067 61.867-125.867h-121.6c12.8 44.8 32 87.467 59.733 125.867zM437.333 448h149.334c2.133-21.333 4.266-42.667 4.266-64s-2.133-42.667-4.266-64H437.333c-2.133 21.333-4.266 42.667-4.266 64s0 42.667 4.266 64zM428.8 625.067C409.6 588.8 394.667 550.4 384 512h-93.867c32 53.333 81.067 93.867 138.667 113.067zM256 384c0 21.333 2.133 42.667 8.533 64h108.8c-2.133-21.333-4.266-42.667-4.266-64s2.133-42.667 4.266-64h-108.8c-6.4 21.333-8.533 42.667-8.533 64zM512 851.2c-115.2 0-224-42.667-309.333-117.333-23.467-21.334-44.8-44.8-64-70.4-32 0-57.6-27.734-57.6-59.734S106.667 544 140.8 544s59.733 25.6 59.733 59.733c0 8.534-2.133 17.067-6.4 25.6 14.934 19.2 34.134 38.4 53.334 55.467C322.133 750.933 416 785.067 514.133 785.067c221.867 0 403.2-181.334 403.2-403.2 0-221.867-181.333-403.2-403.2-403.2-115.2 0-226.133 49.066-302.933 136.533l-25.6 32c2.133 4.267 2.133 10.667 2.133 14.933 0 32-25.6 59.734-59.733 59.734s-59.733-25.6-59.733-59.734S93.867 102.4 128 102.4h8.533l25.6-32C251.733-29.867 377.6-87.467 512-87.467c258.133 0 467.2 209.067 467.2 467.2C979.2 642.133 770.133 851.2 512 851.2z"  horiz-adv-x="1024" />

    
    <glyph glyph-name="gaoxinjishuqiye" unicode="&#58938;" d="M290.14 255.217h81.92v-40.96h-81.92z m99.59 0h81.92v-40.96h-81.92z m-98.182 88.355h81.92v-40.96h-81.92z m99.59 0h81.92v-40.96h-81.92z m-99.59 88.356h81.92v-40.96h-81.92z m99.59 0h81.92v-40.96h-81.92z m-99.59 95.432h81.92v-40.96h-81.92z m99.59 0h81.92v-40.96h-81.92zM573.44 255.217h153.6v-40.96h-153.6z m0 88.355h153.6v-40.96h-153.6z m0 88.356h153.6v-40.96h-153.6zM803.84 148.48v358.4c0 22.584-18.376 40.96-40.96 40.96H537.6c-0.573 0-1.132-0.061-1.7-0.087V619.52c0 22.584-18.376 40.96-40.96 40.96H269.66c-22.584 0-40.96-18.376-40.96-40.96v-471.04h-34.14v-40.96h634.88v40.96h-25.6z m-534.18 0V619.52h225.28v-471.04H269.66z m267.94 0v358.4h225.28v-358.4H537.6z"  horiz-adv-x="1024" />

    
    <glyph glyph-name="quanbu" unicode="&#58922;" d="M511.444 761.335L847.67 547.427 511.444 333.524 175.22 547.427l336.223 213.908m0 70.968L63.645 547.427l447.799-284.873 447.803 284.873L511.444 832.303zM959.246 453.47L511.444 168.595 63.645 453.47v-70.97l447.799-284.872L959.247 382.5v70.97zM959.246 292.542L511.444 7.667 63.645 292.542v-70.97l447.799-284.873 447.803 284.873v70.97z"  horiz-adv-x="1024" />

    
    <glyph glyph-name="tongjijuicon_shenggaoyanj" unicode="&#58986;" d="M314.92 385.25v-88.38l72.72-41.39v-77.2l77.2-43.63V299.11l-149.92 86.14z m50.34-283.05l-101.81-59.3-121.95 70.48V254.36l95.1 54.82v88.38L64.31 299.11v-229.35l199.14-115.23L444.7 58.57l-79.44 43.63z m421.78 296.48v-88.38l95.1-54.82v-140.97l-121.95-70.48-101.81 59.3-78.31-43.63 180.12-105.16 199.14 115.23V299.11l-172.29 99.57z m-78.31-101.81v88.38L558.81 299.1v-164.46l77.2 43.63v76.08l72.72 42.52z m-196.91 70.48l161.1 89.5-80.55 44.75-80.55-44.75-81.67 45.87-80.55-44.75 162.22-90.62zM388.76 567.61v91.74l123.07 68.25 123.07-68.25v-91.74l77.2-43.63V704.11L511.82 815.98 311.56 704.11v-180.12c0-0.01 77.2 43.62 77.2 43.62z"  horiz-adv-x="1024" />

    
    <glyph glyph-name="xuexiao" unicode="&#58932;" d="M599.552 88.576h44.032c5.12 0 9.216 4.096 9.216 9.216v306.688c0 5.12-4.096 9.216-9.216 9.216h-44.032c-5.12 0-9.216-4.096-9.216-9.216v-306.688c0.512-5.12 4.096-9.216 9.216-9.216zM947.712 526.848c2.048-0.512 4.608 0 6.656 1.024 1.024 0.512 2.048 1.536 2.56 2.56 0 0 0 0.512 0.512 0.512 1.024 1.536 1.024 3.072 1.024 4.608v44.032c0 4.096-3.072 7.68-6.656 8.704l-436.224 221.696c-1.536 0.512-2.56 1.024-4.096 1.024-1.536 0-3.072-0.512-4.096-1.024l-434.176-221.184c-4.608 0-8.704-4.096-8.704-9.216V534.528c0-3.072 1.536-6.144 4.096-7.68 1.536-1.024 3.072-1.536 4.608-1.536 1.536 0 2.56 0.512 4.096 1.024h52.736v-507.904h-56.832c-5.12 0-9.216-4.096-9.216-9.216v-44.032c0-5.12 4.096-9.216 9.216-9.216H948.736c5.12 0 9.216 4.096 9.216 9.216v44.032c0 5.12-4.096 9.216-9.216 9.216h-56.832V526.848h55.808z m-746.496 61.44l310.784 155.648 311.808-155.648h-622.592z m630.272-569.344h-638.976V526.848h638.976v-507.904zM380.416 88.576h44.032c5.12 0 9.216 4.096 9.216 9.216v306.688c0 5.12-4.096 9.216-9.216 9.216h-44.032c-5.12 0-9.216-4.096-9.216-9.216v-306.688c0.512-5.12 4.608-9.216 9.216-9.216z"  horiz-adv-x="1024" />

    
    <glyph glyph-name="haiguanguanli" unicode="&#59086;" d="M1024 244.608L893.76 485.76l-74.688-38.592a313.6 313.6 0 0 0 19.072-106.432c0-160.64-122.752-293.504-282.048-314.496V415.488h133.248v82.56H556.096v59.52c76.16 19.072 132.224 86.4 132.224 166.528C688.32 818.816 609.664 896 512 896 414.784 896 335.68 819.328 335.68 724.096c0-81.024 57.6-148.928 135.232-167.04v-59.008H327.68v-82.56h143.36v-389.12c-160.384 19.456-284.608 152.768-284.608 314.88 0 37.632 6.528 73.28 19.008 106.496l-75.136 38.528L0 245.12l75.136-38.528 34.56 63.424c32.064-173.824 179.392-308.608 361.728-326.144V-128h84.672v71.808c181.376 18.56 327.104 152.832 359.168 325.696l34.56-63.488L1024 244.608zM419.84 724.096c0 49.28 41.088 89.856 92.16 89.856 50.56 0 92.16-40 92.16-89.856 0-49.28-41.088-89.856-92.16-89.856-51.072 0-92.16 40.064-92.16 89.856z"  horiz-adv-x="1024" />

    
    <glyph glyph-name="longtouqiye" unicode="&#59351;" d="M788.821333-16.315733H242.2784v50.926933H788.821333v-50.926933z m21.333334 528.896a90.3168 90.3168 0 0 0 64.512 26.043733c25.6 0 48.264533-9.796267 64.512-26.043733 16.247467-16.247467 26.043733-38.912 26.043733-64.512 0-23.381333-9.693867-44.817067-25.668267-61.474134-17.271467-18.0224-41.8816-30.481067-69.597866-33.8944l-72.465067-247.227733a24.405333 24.405333 0 0 0-9.045333-11.946667 25.361067 25.361067 0 0 0-14.574934-4.8128H248.832a25.361067 25.361067 0 0 0-14.574933 4.8128 24.405333 24.405333 0 0 0-9.079467 12.014934L139.946667 374.033067a89.531733 89.531733 0 0 0-62.907734 29.115733 91.204267 91.204267 0 0 0-23.7568 61.713067 92.16 92.16 0 0 0 25.1904 64.170666 84.48 84.48 0 0 0 61.166934 26.385067c25.6 0 48.264533-9.796267 64.512-26.043733 16.247467-16.247467 26.043733-38.912 26.043733-64.512 0-9.1136 0.3072-18.3296-6.656-27.477334l120.046933-64.648533 115.029334 203.434667c-26.760533 15.018667-39.936 44.3392-39.936 73.489066 0 25.6 9.8304 48.264533 26.077866 64.512a90.3168 90.3168 0 0 0 64.512 26.077867c25.6 0 48.2304-9.8304 64.512-26.077867 16.213333-16.247467 26.043733-38.912 26.043734-64.512 0-29.2864-13.380267-54.1696-35.464534-69.768533l119.125334-207.325867 100.625066 59.460267v16.042667c0 25.6 9.796267 48.264533 26.043734 64.512zM373.76 329.1136c-3.2768-6.656-8.123733-10.9568-13.9264-12.6976-6.075733-1.8432-13.0048-0.8192-19.968 2.594133L188.177067 401.749333l81.442133-257.9456h487.7312l69.5296 230.4-14.199467 14.199467-121.480533-69.393067c-6.382933-3.208533-12.970667-7.509333-19.626667-4.130133-7.202133 3.584-14.779733 6.894933-18.363733 14.2336l-139.741867 244.5312-139.741866-244.5312z m179.370667 324.778667c0 11.707733-4.471467 21.162667-11.264 27.9552a40.448 40.448 0 0 1-56.763734 0c-6.7584-6.7584-11.264-16.247467-11.264-27.989334 0-11.707733 4.5056-21.162667 11.264-27.9552 7.509333-7.509333 17.954133-11.6736 28.398934-11.6736 12.3904 0 22.186667 3.925333 28.945066 10.683734 6.7584 6.792533 10.683733 16.5888 10.683734 28.9792z m286.139733-205.824c0-10.1376 3.822933-18.944 10.171733-25.258667 6.314667-6.3488 15.121067-10.171733 25.258667-10.171733 10.615467 0 22.664533 3.072 31.300267 9.762133a31.266133 31.266133 0 0 1 12.526933 25.668267c0 11.741867-4.471467 21.1968-11.264 27.989333a40.448 40.448 0 0 1-28.330667 11.639467c-11.776 0-21.230933-4.471467-27.989333-11.264-7.543467-7.509333-11.6736-17.92-11.6736-28.3648z m-669.252267-9.216c5.666133 5.632 9.3184 14.062933 9.3184 26.0096 0 12.014933-3.6864 21.572267-9.557333 28.2624a33.621333 33.621333 0 0 1-25.9072 11.400533c-11.707733 0-21.1968-4.5056-27.989333-11.264-7.509333-7.509333-11.639467-17.954133-11.639467-28.398933 0-9.898667 4.676267-18.6368 11.946667-25.019734 7.406933-6.485333 17.544533-10.410667 27.682133-10.410666 10.683733 0 19.797333 3.072 26.146133 9.386666z"  horiz-adv-x="1024" />

    
    <glyph glyph-name="gongyehulianwang" unicode="&#59097;" d="M496.2 542.8c-81-8.3-142.1-76.6-142.1-158.8 0-82.3 61.1-150.5 142.1-158.8 79.1-8 151.1 43.9 169.5 121.5h337.8L1024 384 768.1 849.5H255.9L0 384l254-462 1.9-3.5h512.2l209.1 380.4h-84.5l-168-305.8H299.4L84.4 384l214.9 390.9h425.3L919 421.3H665.7C647.3 499 575.3 551 496.2 542.8z m100-158.8c-0.1-46.9-37.8-85-84.2-85.1-46.4 0-84.2 38.1-84.2 85s37.7 85 84.2 85c46.4 0.1 84.2-38 84.2-84.9z"  horiz-adv-x="1024" />

    
    <glyph glyph-name="biaoji" unicode="&#58884;" d="M818.048 239.04l-102.08 233.856 99.008 204.224H218.88v-438.08h599.168zM218.88-64H128V768h832l-144-297.088 140.864-322.752H218.88V-64z"  horiz-adv-x="1024" />

    
    <glyph glyph-name="dapingzhutu" unicode="&#58886;" d="M928 800v-832h-832v832h832z m-89.6-89.6H185.6v-652.8h652.8V710.4zM556.8 612.928v-439.616H467.2V612.928h89.6z m-192-192v-247.616H275.2V420.928h89.6z m384 0v-247.616h-89.6V420.928h89.6z"  horiz-adv-x="1024" />

    
    <glyph glyph-name="gengduomoban" unicode="&#58888;" d="M877.632 230.784l82.368-50.56-448-274.752-448 274.816 82.368 50.496L512 8.704l365.632 222.08z m0 203.328L960 383.616l-448-274.752-448 274.752 82.368 50.56L512 212.032l365.632 222.08zM512 865.472l448-274.752-448-274.816L64 590.72 512 865.472zM512 762.24L231.232 590.72 512 419.2l280.768 171.52L512 762.24z"  horiz-adv-x="1024" />

    
    <glyph glyph-name="qiye1" unicode="&#58895;" d="M653.44 361.6V709.76H186.048v-650.24l652.032-0.704V361.6h-184.512z m274.56 90.112V-32l-832 1.408V800h647.424v-348.288H928zM301.632 516.48V606.72H550.4V516.48H301.632z m0-189.376V417.28H550.4V327.04H301.632z"  horiz-adv-x="1024" />

    
    <glyph glyph-name="shouye" unicode="&#58919;" d="M189.12 493.376v-437.952h145.472V298.816h353.92v-243.392h146.368V493.376L512 693.44 189.12 493.44zM512 800l416-260.992V-32H595.392v243.392h-167.68V-32H96V539.008L512 800z"  horiz-adv-x="1024" />

    
    <glyph glyph-name="zhexianzhuzhuang" unicode="&#59350;" d="M975.09376 657.6128c12.82048 0 23.7568-9.17504 26.05056-21.74976l0.4096-4.75136V-84.1728c0-12.82048-9.13408-23.7568-21.7088-26.05056l-4.75136-0.45056h-132.42368a26.50112 26.50112 0 0 0-26.05056 21.7088l-0.45056 4.79232V631.11168c0 12.77952 9.13408 23.7568 21.7088 26.05056l4.79232 0.4096h132.42368z m-264.88832-211.968c12.77952 0 23.7568-9.13408 26.05056-21.7088l0.4096-4.75136V-84.1728c0-12.82048-9.13408-23.7568-21.7088-26.05056l-4.75136-0.45056h-132.46464a26.50112 26.50112 0 0 0-26.05056 21.7088l-0.4096 4.79232V419.18464c0 12.77952 9.13408 23.7568 21.7088 26.05056l4.75136 0.4096h132.46464zM445.2352 578.1504c12.82048 0 23.7568-9.13408 26.05056-21.7088l0.45056-4.79232v-635.74016c0-12.82048-9.13408-23.7568-21.7088-26.05056l-4.79232-0.45056H312.85248a26.50112 26.50112 0 0 0-26.05056 21.7088l-0.4096 4.79232V551.60832c0 12.82048 9.13408 23.7568 21.7088 26.05056l4.75136 0.45056h132.42368z m-397.312-238.3872h132.42368c12.77952 0 23.7568-9.17504 26.05056-21.74976l0.4096-4.75136v-397.35296c0-12.82048-9.13408-23.7568-21.7088-26.05056l-4.75136-0.45056H47.9232a26.50112 26.50112 0 0 0-26.05056 21.7088l-0.4096 4.79232v397.312c0 12.82048 9.13408 23.7568 21.7088 26.09152l4.75136 0.4096h132.46464H47.9232zM908.82048 896a92.85632 92.85632 0 0 0 92.73344-92.73344 92.81536 92.81536 0 0 0-144.5888-76.8L729.4976 627.22048a92.81536 92.81536 0 0 0-156.59008-95.31392 92.81536 92.81536 0 0 0-21.0944 69.34528l-109.60896 54.6816a92.32384 92.32384 0 0 0-110.91968-11.59168L197.67296 525.68064A92.81536 92.81536 0 0 0 43.008 425.94304a92.81536 92.81536 0 0 0 118.90688 138.8544l133.5296 118.784a92.81536 92.81536 0 0 0 83.5584 132.95616 92.81536 92.81536 0 0 0 90.112-114.81088l103.2192-51.6096a92.5696 92.5696 0 0 0 123.41248 18.0224l127.5904 99.20512A92.73344 92.73344 0 0 0 908.9024 896z"  horiz-adv-x="1024" />

    
    <glyph glyph-name="shuzi" unicode="&#58930;" d="M510.094604 749.551716c-247.223614 0-447.63711-200.414519-447.63711-447.63711s200.414519-447.63711 447.63711-447.63711 447.63711 200.414519 447.63711 447.63711S757.318218 749.551716 510.094604 749.551716zM580.037583 92.083623 580.037583 438.303926 443.648262 438.303926l0-300.755832-164.366512-41.966811-17.486256 69.942979 115.406426 31.474852L377.201921 438.303926 268.789793 438.303926l0 69.942979 482.608599 0 0-69.942979L646.483924 438.303926l0-258.790044 94.423533 24.479531 17.486256-69.942979L580.037583 92.083623z"  horiz-adv-x="1024" />

    
    <glyph glyph-name="biaoge1" unicode="&#58894;" d="M40.429795555555586 481.5234844444444h263.4877155555555v-214.09678222222223H40.429795555555586zM375.77841777777775 195.5657955555556H648.851911111111v-235.65539555555554H375.77841777777775zM375.77841777777775 481.5234844444444H648.851911111111v-214.09678222222223H375.77841777777775zM720.7139555555556 195.5657955555556h263.50136888888886v-235.65539555555554H720.7139555555556zM40.429795555555586 195.5657955555556h263.4877155555555v-235.65539555555554H40.429795555555586zM40.429795555555586 808.5492622222222h943.785528888889v-255.1648711111111H40.429795555555586zM720.7139555555556 481.5234844444444h263.50136888888886v-214.09678222222223H720.7139555555556z"  horiz-adv-x="1024" />

    
    <glyph glyph-name="tishi" unicode="&#58903;" d="M512-128a512 512 0 1 0 512 512 512 512 0 0 0-512-512z m49.95122 774.243902a49.95122 49.95122 0 0 1-99.90244 0v-324.682926a49.95122 49.95122 0 0 1 99.90244 0V646.243902z m-49.95122-437.07317a49.95122 49.95122 0 1 1 49.95122-49.95122 49.95122 49.95122 0 0 1-49.95122 49.95122z"  horiz-adv-x="1024" />

    
    <glyph glyph-name="qiehuan" unicode="&#58906;" d="M661.469867 554.666667l-151.552 151.552 72.430933 72.362666L908.629333 452.266667H102.4v102.4zM349.627733 213.33333300000004l151.517867-151.552-72.3968-72.362666L102.4 315.733333h806.263467v-102.4z"  horiz-adv-x="1024" />

    
    <glyph glyph-name="riqi" unicode="&#59381;" d="M495.8 797.1c-228.7 0-414-185.3-414-413.8s185.3-413.8 414-413.8 414 185.2 414 413.8S724.4 797 495.8 797.1z m264.1-486.4H466.4c-1.5 0-2.3 1.2-3.9 1.4-0.5 0-0.8-0.7-1.5-0.7-4.8 0.1-8.5 3.9-12.7 5.9-3.6 1.9-7.7 2.3-10.5 5-2.2 2.2-2.3 5.7-4 8.5-2.9 5-7 9.4-7 15.3 0 0.7 0.8 1.1 0.8 1.8s-0.8 1.4-0.8 2.2V670c0 21.3 15.5 38.5 34.4 38.5s34.4-17.3 34.4-38.5v-288.8H760c21.9 0 36.7-15.7 36.7-35.2 0-19.4-14.8-35.3-36.8-35.3z m0 0"  horiz-adv-x="1024" />

    
    <glyph glyph-name="zhuzhuangtu" unicode="&#58995;" d="M803.84 727.04v-777.216h195.072V727.04H803.84z m-233.472-777.216h195.072V532.992h-195.072v-583.168z m-311.296 0h194.56v349.696h-194.56v-349.696z m-233.472 0h194.56V532.992H25.6v-583.168z"  horiz-adv-x="1024" />

    
    <glyph glyph-name="iconzifu" unicode="&#59074;" d="M512-64A448 448 0 1 1 512 832a448 448 0 0 1 0-896z m-32.64 265.984l-32.64 87.488H326.848l-32.64-87.488H217.92l119.808 350.016h97.984l119.808-350.016H479.36z m-98.048 251.52l-32.64-98.368h76.16l-32.64 98.432h-10.88z m272.256-251.52c-52.096 0-97.92 38.016-97.92 87.488 0 49.984 41.216 76.608 108.8 76.608h76.16v21.888c0 25.6-15.424 43.712-43.52 43.712-27.776 0-50.88-12.544-54.4-32.832H577.28c2.816 53.376 47.296 98.432 119.744 98.432 70.208 0 108.928-43.008 108.928-98.432v-196.864h-65.344v43.776c-15.36-29.248-52.928-43.776-87.104-43.776z m15.104 51.712c32.448 0 59.264 21.248 59.264 51.008v20.032l-57.728-3.648c-27.776-2.048-43.648-14.592-43.648-34.048 0-20.48 16.896-33.344 42.112-33.344z"  horiz-adv-x="1024" />

    
    <glyph glyph-name="shujutubiaobingtu-" unicode="&#59081;" d="M480 809.493333l-0.362667-425.770666 0.149334-3.093334a38.4 38.4 0 0 1 0.469333-3.392c-0.981333-8.32 1.28-16.981333 6.848-23.872l2.24-2.496 289.450667-299.861333A424.874667 424.874667 0 0 0 512-42.666667C276.352-42.666667 85.333333 148.352 85.333333 384 85.333333 608.874667 259.306667 793.130667 480 809.493333zM577.173333 352l360.32 0.064A425.045333 425.045333 0 0 0 825.6 94.677333L577.173333 352.021333l360.32 0.064-360.32-0.064z m-33.536 64L544 809.493333c210.090667-15.573333 377.856-183.317333 393.472-393.386666l-393.813333-0.085334 0.341333 393.472-0.362667-393.472z"  horiz-adv-x="1024" />

    
    <glyph glyph-name="chenggong" unicode="&#59346;" d="M470.810461 185.703611L156.851806 499.407223 0 342.555417l470.555417-470.555417 19.128269 19.128269h0.255044L1273.942715 675.387298 1117.090909 832.239103z"  horiz-adv-x="1278" />

    
    <glyph glyph-name="shangchuan" unicode="&#59347;" d="M896.750933 169.301333v-169.847466H127.249067v169.847466H34.133333V-93.866667h955.733334v263.168zM512 861.866667l66.013867-66.013867L822.613333 551.253333l-65.9456-66.013866-195.242666 195.242666v-528.384h-98.986667v528.384l-195.242667-195.242666-65.9456 66.013866 244.667734 244.667734z"  horiz-adv-x="1024" />

    
    <glyph glyph-name="xiazai" unicode="&#59348;" d="M896.750933 169.301333v-169.847466H127.249067v169.847466H34.133333V-93.866667h955.733334v263.168zM512 152.098133l66.013867 65.9456 244.667733 244.736-65.9456 66.013867-195.242667-195.242667V861.866667h-98.986666v-528.384l-195.242667 195.242666-65.9456-65.9456 244.667733-244.736z"  horiz-adv-x="1024" />

    
    <glyph glyph-name="shanchu1" unicode="&#59349;" d="M518.721956 895.99936A181.823886 181.823886 0 0 1 336.962069 720.06347H107.650213a46.399971 46.399971 0 0 1 0-92.671942h51.135968v-518.399676c0-97.279939 65.919959-176.831889 147.519907-176.83189h415.551741c81.407949 0 147.519908 79.103951 147.519907 176.83189V627.071528h46.335971a46.399971 46.399971 0 0 1 0 92.671942h-215.679865A181.311887 181.311887 0 0 1 518.721956 895.99936zM423.810015 720.06347a94.975941 94.975941 0 0 0 94.975941 89.151944c50.687968 0 91.647943-39.103976 94.52794-89.151944H423.874015z m-117.759926-701.375562c-28.799982 0-60.671962 37.119977-60.671963 90.303944V627.071528h536.959665v-518.591676c0-52.991967-31.87198-90.239944-60.735962-90.239943H306.114088v0.511999z m62.335961 111.487931c21.119987 0 38.591976 21.119987 38.591975 47.74397V450.175639c0 26.559983-17.279989 47.74397-38.591975 47.74397-21.247987 0-38.719976-21.119987-38.719976-47.74397v-272.25583c0-26.431983 17.023989-47.74397 38.719976-47.74397z m139.775912 0c21.119987 0 38.591976 21.119987 38.591976 47.74397V450.175639c0 26.559983-17.279989 47.74397-38.591976 47.74397-21.183987 0-38.655976-21.119987-38.655976-47.74397v-272.25583c0-26.431983 17.471989-47.74397 38.655976-47.74397z m147.007908 0c21.119987 0 38.655976 21.119987 38.655976 47.74397V450.175639c0 26.559983-17.279989 47.74397-38.655976 47.74397-21.119987 0-38.591976-21.119987-38.591976-47.74397v-272.25583c0-26.431983 16.831989-47.74397 38.591976-47.74397z"  horiz-adv-x="1024" />

    
    <glyph glyph-name="jixiaopingjia" unicode="&#59336;" d="M950.857143 859.428571v-370.834285h-101.888V756.736H175.030857v-746.057143H950.857143V-91.428571H73.142857V858.843429L950.857143 859.428571z m-72.045714-449.097142l72.045714-72.265143-254.317714-254.976L533.504 246.491429l72.045714 72.192 90.989715-91.136 182.272 182.710857V410.331429z m-407.771429-62.171429v-102.107429H291.474286V348.16H471.04z m257.024 242.614857V488.594286h-436.662857V590.774857h436.662857z"  horiz-adv-x="1024" />

    
    <glyph glyph-name="yewuzhidao" unicode="&#59342;" d="M184.234667 588.458667A305.749333 305.749333 0 0 0 489.301333 894.976a305.749333 305.749333 0 0 0 305.066667-306.517333A306.517333 306.517333 0 0 0 638.293333 321.109333 228.949333 228.949333 0 0 0 422.144 167.253333H271.445333V274.432h150.869334c67.413333 0 122.026667 54.869333 122.026666 122.624v7.68H109.226667l-1.706667-424.277333h678.656c67.413333 0 122.026667 54.869333 122.026667 122.538666l1.706666 148.48H739.584V358.826667h277.077333l-1.706666-255.744a229.376 229.376 0 0 0-228.693334-229.802667H0.597333L2.389333 512h191.402667a308.138667 308.138667 0 0 0-9.557333 76.458667z m121.941333-76.458667h344.832v-38.656c23.04 32.512 36.608 72.277333 36.608 115.2A198.741333 198.741333 0 0 1 489.301333 787.626667 198.741333 198.741333 0 0 1 290.986667 588.458667c0-27.050667 5.461333-52.992 15.189333-76.458667z"  horiz-adv-x="1024" />

    
    <glyph glyph-name="pingjiayewu" unicode="&#59343;" d="M468.114286 44.763429V332.068571l-307.2 175.542858v-287.305143l307.2-175.542857z m87.771428 0l307.2 175.542857V507.611429l-307.2-175.542858v-287.305142z m262.290286 538.258285L512 757.906286 205.824 583.021714 512 408.064l306.176 174.884571v0.073143zM73.142857 608.256L512 859.062857l438.857143-250.806857v-438.857143l-438.857143-250.733714-438.857143 250.733714v438.857143z"  horiz-adv-x="1024" />

    
    <glyph glyph-name="qiyepingjia" unicode="&#59344;" d="M512 861.866667c109.909333 0 198.929067-93.115733 198.929067-208.008534 0-58.1632-22.801067-110.728533-59.5968-148.48l0.546133 1.024c-15.223467-22.869333-27.170133-70.997333-27.170133-108.885333 0-62.941867 23.620267-118.9888 76.936533-144.7936L921.6 252.791467V-93.866667H102.4V252.791467h211.899733l3.413334 1.6384c51.473067 26.487467 85.1968 81.5104 85.1968 143.086933 0 33.518933-9.352533 75.093333-22.050134 100.010667a211.3536 211.3536 0 0 0-67.7888 156.330666C313.070933 768.750933 402.090667 861.866667 512 861.866667z m316.757333-706.1504H195.242667v-152.507734h633.514666v152.507734zM535.893333 447.351467a182.954667 182.954667 0 0 0-44.032-0.4096c2.594133-16.725333 3.8912-33.450667 3.8912-49.425067 0-53.111467-15.5648-103.150933-42.734933-144.725333h121.719467a264.328533 264.328533 0 0 0-42.8032 144.725333c0 16.042667 1.365333 32.904533 3.959466 49.834667zM512 764.791467c-58.5728 0-106.0864-49.629867-106.0864-110.933334 0-61.2352 47.5136-110.933333 106.0864-110.933333 58.5728 0 106.0864 49.698133 106.0864 110.933333 0 61.303467-47.5136 110.933333-106.0864 110.933334z"  horiz-adv-x="1024" />

    
    <glyph glyph-name="jinduguankong" unicode="&#59345;" d="M840.96 896v-94.976l59.136-0.085333c68.266667 0 123.904-55.722667 123.904-124.330667v-219.477333c0-68.693333-55.466667-124.330667-123.904-124.330667h-59.136v-95.061333H184.917333V332.8h-61.013333a21.930667 21.930667 0 0 1-21.248-16.896l-0.682667-5.12v-219.306667c0-10.24 6.912-19.029333 16.810667-21.333333l5.12-0.682667h60.928V164.693333h656.128V-128H184.832v95.061333h-61.013333A124.16 124.16 0 0 0 0.341333 80.64L0 91.392V310.869333c0 65.109333 49.749333 118.442667 113.237333 123.904l10.666667 0.426667h61.013333V530.261333h656.042667V435.2h59.136a21.930667 21.930667 0 0 1 21.845333 21.930667V676.693333a21.930667 21.930667 0 0 1-21.930666 21.930667h-59.050667V603.306667H184.917333V896h656.042667zM738.986667 62.208H286.976V-25.6H738.986667V62.208h-0.085334z m0 365.653333H286.976v-87.722666H738.986667V427.861333h-0.085334z m0 365.738667H286.976v-87.808H738.986667V793.6h-0.085334z"  horiz-adv-x="1024" />

    
    <glyph glyph-name="biaoge" unicode="&#58960;" d="M640 810.666667l213.333333-213.333334v-605.866666a34.133333 34.133333 0 0 0-34.133333-34.133334H204.8a34.133333 34.133333 0 0 0-34.133333 34.133334V776.533333a34.133333 34.133333 0 0 0 34.133333 34.133334H640z m-170.666667-640H298.666667v-85.333334h170.666666v85.333334z m256 0h-170.666666v-85.333334h170.666666v85.333334z m-256 170.666666H298.666667v-85.333333h170.666666v85.333333z m256 0h-170.666666v-85.333333h170.666666v85.333333zM597.333333 768v-213.333333h213.333334l-213.333334 213.333333z"  horiz-adv-x="1024" />

    
    <glyph glyph-name="qiye2" unicode="&#59341;" d="M383.73181 533.479619h193.536c16.359619 0 29.45219-13.092571 29.45219-29.45219v-576.219429c0-16.384-13.092571-29.476571-29.45219-29.476571h-204.141715a22.77181 22.77181 0 0 0-12.166095-3.486477L1.755429-102.619429V633.490286a22.674286 22.674286 0 0 0 22.771809 22.771809h336.457143a22.674286 22.674286 0 0 0 22.747429-22.771809v-100.010667z m-130.584381-418.547809v53.101714H57.417143v-53.101714h195.730286z m0 161.889523v53.126096H57.417143v-53.150477h195.730286z m0 164.425143v53.101714H57.417143v-53.101714h195.730286z m130.584381-330.118095h150.966857v68.754286H383.75619v-68.754286z m-58.563048 56.905143v-53.101714h2.925714v53.101714h-2.925714z m0 161.889524v-5.973334h2.925714v5.997715h-2.925714z m58.563048 62.780952v-68.754286h150.966857v68.754286H383.75619z m291.742476-491.105524V854.332952c0 16.384 13.116952 29.476571 29.500952 29.476572h435.44381c16.335238 0 29.45219-13.092571 29.45219-29.476572V-72.167619c0-16.384-13.116952-29.476571-29.476571-29.476571l-464.920381 3.267047zM1097.825524 674.279619H747.52v-68.754286h350.305524v68.754286z m0-212.821333H747.52v-68.754286h350.305524v68.754286z m0-209.529905H747.52v-68.754286h350.305524v68.754286z"  horiz-adv-x="1170" />

    
    <glyph glyph-name="qiyeguanliantupu" unicode="&#59333;" d="M239.988364 276.712727a175.429818 175.429818 0 0 0 85.876363-4.817454C328.122182 398.475636 431.429818 500.363636 558.545455 500.363636c128.535273 0 232.727273-104.192 232.727272-232.727272s-104.192-232.727273-232.727272-232.727273c-41.890909 0-81.221818 11.077818-115.2 30.464a173.824 173.824 0 0 0-30.952728-65.629091 323.653818 323.653818 0 1 1 149.504 609.861818c-178.106182-0.884364-322.048-145.547636-322.048-323.653818 0-3.095273 0.046545-6.167273 0.139637-9.239273z m133.562181-314.321454a173.754182 173.754182 0 0 0-100.119272-31.557818 173.940364 173.940364 0 0 0-70.795637 14.94109A106.821818 106.821818 0 1 0 98.909091 101.701818a174.475636 174.475636 0 0 0 88.459636 155.578182c-0.814545 10.007273-1.210182 20.107636-1.210182 30.301091C186.181818 495.057455 354.397091 663.272727 561.896727 663.272727a375.714909 375.714909 0 0 0 375.714909-375.714909c0-207.499636-168.215273-375.714909-375.714909-375.714909-68.654545 0-132.980364 18.385455-188.346182 50.548364z m85.690182 826.693818a106.821818 106.821818 0 1 0 213.620364 0 106.821818 106.821818 0 0 0-213.643636 0z m436.363637-793.832727a106.821818 106.821818 0 1 0 213.620363 0 106.821818 106.821818 0 0 0-213.643636 0z"  horiz-adv-x="1117" />

    
    <glyph glyph-name="qiyegaozhiliangpingjia" unicode="&#59334;" d="M324.982634 571.317073V890.205659h540.846829v-171.482537c0-11.48878 6.918244-24.151415 17.258147-24.151415h201.403317v-308.423805l-13.811512-19.555902-158.819903-155.348293c-21.853659-21.878634-35.665171-51.774439-35.665171-82.869073 0-25.300293 8.042146-48.327805 21.853659-67.883707l-20.729756-20.729756 26.474146-27.598049 21.878634 20.729756c20.729756-13.836488 46.030049-21.878634 71.355317-21.878634 26.474146 0 52.948293 18.407024 87.464586 34.516293v-87.464586H599.414634V-128H0V571.317073h324.982634zM599.414634 360.84761h231.898537v57.543805H599.414634v-57.543805z m-52.498732 138.090146h284.397269v57.543805h-341.916098l57.518829-57.543805z m390.268878-315.317073l158.794927 158.819902 108.169366-110.492097-157.646049-158.794927c-28.771902-28.771902-80.546341-28.771902-109.318244 0a77.499317 77.499317 0 0 0-23.027512 55.221073c0 20.729756 8.067122 40.285659 23.027512 55.246049z m486.774635 378.630244c31.069659-29.945756 31.069659-79.422439 0-110.492098l-192.187317-192.187317-109.318244 110.467122 191.038439 192.187317a77.499317 77.499317 0 0 0 55.221073 23.027512c20.729756 0 40.285659-8.067122 55.246049-23.027512zM911.859512 895.925073l154.199415-155.348293H911.859512V895.950049z"  horiz-adv-x="1448" />

    
    <glyph glyph-name="ditu" unicode="&#59335;" d="M223.259516 593.127112c4.319622-16.554388 9.16359-34.532004 14.581844-53.957816 5.393285-19.425813 11.485699-39.226159 18.352149-59.37607 6.816513-20.149911 14.556875-40.12504 23.221087-59.925386 8.614274-19.775377 17.977616-38.302309 28.040087-55.580795v-425.320426L37.590695-127.950062v674.659969l185.668821 46.442174zM303.684377 640.093633a92.934286 92.934286 0 0 0-0.549316 10.237254c0 32.409646 6.292166 62.622028 18.901466 90.687084a241.224647 241.224647 0 0 0 51.261174 73.957914 241.174709 241.174709 0 0 0 75.580893 50.18751A234.857575 234.857575 0 0 0 541.713004 883.515545c33.083807 0 64.045256-6.117383 92.83441-18.35215a241.224647 241.224647 0 0 0 75.555924-50.18751 241.199678 241.199678 0 0 0 51.261174-73.957914 218.92741 218.92741 0 0 0 18.901465-90.662115v-12.983834c0-4.294653-0.349565-8.614274-1.073663-12.933896a481.076004 481.076004 0 0 0-25.368413-109.56358 575.38358 575.38358 0 0 0-48.040184-100.924338 716.807491 716.807491 0 0 0-66.916681-93.383726 1068.319817 1068.319817 0 0 0-80.974178-85.818146c-5.04372-5.04372-10.437005-7.540611-16.179854-7.540611-5.767818 0-11.161103 2.496891-16.204823 7.540611a925.772305 925.772305 0 0 0-82.047841 86.367462 708.517812 708.517812 0 0 0-66.916681 94.981737 595.084051 595.084051 0 0 0-48.040184 103.096632 460.476653 460.476653 0 0 0-24.294751 110.637244 91.885592 91.885592 0 0 1-0.524347 10.262222z m238.028627 109.563581c-14.407062 0-27.715491-2.496891-39.950257-7.56558-12.234766-5.018751-22.846553-12.035015-31.835362-21.048792-8.988808-8.988808-16.204823-19.600595-21.598107-31.835361a95.206457 95.206457 0 0 1-8.089928-38.851625c0-13.682963 2.696642-26.641828 8.089928-38.876594 5.393285-12.234766 12.584331-22.846553 21.598107-31.835362 8.988808-8.988808 19.600595-16.005072 31.835362-21.048791a103.870669 103.870669 0 0 1 39.950257-7.56558c14.382093 0 27.890273 2.52186 40.449635 7.56558a95.206457 95.206457 0 0 1 32.409646 21.048791c8.988808 8.988808 16.179854 19.600595 21.573139 31.835362 5.418254 12.234766 8.114896 25.2186 8.114896 38.876594 0 13.657994-2.696642 26.616859-8.114896 38.851625a103.795762 103.795762 0 0 1-21.573139 31.835361 95.13155 95.13155 0 0 1-32.384677 21.048792 107.96557 107.96557 0 0 1-40.474604 7.56558zM435.370413 214.24886c19.800346-18.726683 37.60318-35.281071 53.433469-49.663163 18.726683-16.554388 36.354734-31.311014 52.909122-44.269879 8.639243 7.216015 18.352149 15.480725 29.138719 24.844066 9.363342 7.915145 20.149911 17.977616 32.384677 30.212382 12.234766 12.234766 26.267294 25.917729 42.097584 41.02392v-344.346248l-270.937651 66.916681V276.845919c20.849041-23.021336 41.198703-43.895345 60.97408-62.597059zM982.114652 614.72522v-675.758601l-269.863988-66.916681V285.510131a220.225793 220.225793 0 0 1 12.409549 13.483212 220.225793 220.225793 0 0 0 12.434518 13.508181c14.382093 15.830289 27.715491 34.706786 39.950257 56.679427 12.234766 21.947673 23.196118 45.318573 32.909024 70.16264a1016.484358 1016.484358 0 0 1 25.892761 74.482261c7.56558 24.819097 14.232279 48.040184 19.975128 69.613323l126.292751 31.311014z"  horiz-adv-x="1024" />

    
    <glyph glyph-name="yunhangjiance" unicode="&#59337;" d="M416.744186 624.568558V808.340837s160.053581 2.143256 245.950512 26.290605C748.66307 858.778791 845.395349 896 845.395349 896s96.732279-37.221209 182.700651-61.368558C1114.016744 810.507907 1274.046512 808.364651 1274.046512 808.364651v-263.096558s-21.480186-243.378605-62.344931-317.916279c-47.270698-138.12093-235.210419-289.387163-366.306232-339.825116-93.493581 35.95907-215.921116 123.237209-295.578791 220.445767-56.20093-77.70493-154.671628-150.123163-228.328186-178.437953-94.684279 36.435349-230.4 145.669953-264.573023 245.426604C27.433674 228.733023 11.906977 404.551442 11.906977 404.551442v190.011535s115.59293 1.547907 177.628279 18.979721C251.642047 630.974512 321.488372 657.860465 321.488372 657.860465s45.246512-17.408 95.255814-33.291907z m208.324465-274.741581h84.372837l64.083349 168.412279 146.074791-378.641861 105.495814 210.229582h84.444279v62.845023h-128.261954l-61.678139-147.408372-146.074791 378.665674-86.754232-231.257302H631.069767v-8.120558s-2.024186-22.909023-6.001116-54.724465z"  horiz-adv-x="1285" />

    
    <glyph glyph-name="zonghefupingtai" unicode="&#59338;" d="M550.034286 121.58781c-173.007238-173.689905-227.474286-222.841905-227.474286-222.841905l-5.266286-6.022095-5.193143 5.997714s-54.784 49.493333-228.888381 224.402286c-174.104381 174.908952-30.305524 316.220952 38.64381 346.575238a206.06781 206.06781 0 0 0 46.32381 10.654476l-6.38781 6.022095a49.152 49.152 0 0 0-7.046095 63.390476L374.662095 874.422857c9.142857 13.482667 24.380952 21.577143 40.716191 21.577143h545.54819c16.700952 0 32.256-8.484571 41.301334-22.503619l208.969142-323.900952c12.897524-19.992381 9.630476-46.32381-7.777523-62.561524l-489.252572-456.655238a49.152 49.152 0 0 0-67.193905 0.121904l-96.963047 91.087239zM282.136381 373.272381l-28.550095 26.819048-104.789334-107.324953a20.358095 20.358095 0 0 1 0-28.038095 19.090286 19.090286 0 0 1 27.404191 0l105.935238 108.544z m155.355429 286.793143c0-135.387429 109.763048-245.150476 245.150476-245.150476S927.792762 524.678095 927.792762 660.065524H883.565714a200.899048 200.899048 0 1 0-401.798095 0h-44.251429z"  horiz-adv-x="1219" />

    
    <glyph glyph-name="zhizaoye" unicode="&#59339;" d="M872.472381 432.566857h103.399619l158.47619-274.480762-158.47619-274.480762h-316.952381L509.805714 141.945905a19.260952 19.260952 0 0 0-13.994666-5.851429h-22.942477c-10.873905 0-21.74781-8.43581-25.35619-18.090666l-13.312-31.427048c-4.827429-9.654857-2.413714-22.942476 4.851809-30.208l16.896-15.701333a19.407238 19.407238 0 0 0 6.046477-13.287619c0-4.827429-2.438095-9.654857-6.046477-13.28762l-27.794285-26.575238c-8.43581-7.241143-20.528762-7.241143-27.794286 0l-16.896 15.701334c-7.241143 7.265524-20.528762 9.679238-30.208 4.827428l-32.597333-13.287619c-9.679238-2.413714-18.139429-13.287619-18.139429-24.137143v-22.966857a19.090286 19.090286 0 0 0-19.334095-19.334095H244.540952a19.090286 19.090286 0 0 0-19.334095 19.334095v22.942476c0 9.679238-8.46019 20.553143-18.115047 24.161524l-32.621715 13.287619c-8.46019 4.85181-22.966857 2.438095-30.208-4.827428l-16.920381-15.701334c-8.43581-7.241143-20.528762-7.241143-27.794285 0l-27.769905 26.575238a18.968381 18.968381 0 0 0 0 26.575239l16.920381 15.701333c7.241143 7.265524 9.654857 20.553143 4.827428 30.232381L80.213333 118.00381c-3.632762 9.654857-14.506667 18.115048-25.35619 18.115047h-22.966857a19.090286 19.090286 0 0 0-19.334096 19.334095v37.449143c0 10.873905 8.46019 19.309714 19.334096 19.309715h22.942476c10.873905 0 21.74781 8.46019 25.380571 18.139428l13.287619 31.402667c4.827429 9.654857 2.438095 22.942476-4.827428 30.208l-15.701334 15.701333a19.407238 19.407238 0 0 0-6.046476 13.287619c0 4.827429 2.438095 9.654857 4.827429 13.287619l27.794286 26.575238c8.46019 7.241143 20.528762 7.241143 27.794285 0l16.896-15.701333c7.241143-7.241143 20.553143-9.654857 30.208-4.827429l32.621715 13.287619c9.654857 2.413714 18.115048 13.287619 18.115047 24.137143v22.966857c0 10.873905 8.46019 19.334095 19.334095 19.334096h38.64381c10.873905 0 19.334095-8.46019 19.334095-19.334096v-22.942476c0-9.679238 8.46019-21.74781 18.139429-24.161524l32.597333-13.287619c8.46019-4.827429 22.966857-2.438095 30.232381 4.827429l16.896 15.701333c8.46019 7.241143 20.528762 7.241143 27.794286 0l27.794285-26.575238a19.407238 19.407238 0 0 0 6.022096-13.287619c0-4.827429-2.438095-9.654857-6.046476-13.287619l-16.896-15.701333c-7.265524-7.265524-9.679238-20.553143-4.85181-30.208l13.287619-31.402667c3.632762-9.679238 14.506667-18.139429 25.356191-18.139428h22.966857c10.873905 0 19.334095-8.43581 19.334095-19.309715v-9.386666l45.811809 79.311238c-4.291048 10.337524-13.531429 19.577905-24.064 23.088762l-31.402666 12.092952c1.219048 4.827429 1.219048 9.654857 1.219047 14.482286 0 19.334095-8.484571 37.449143-21.77219 50.736762l-30.183619 29.013333a71.192381 71.192381 0 0 1-50.736762 20.528762c-9.679238 0-19.334095-2.438095-27.794286-6.046476l-3.632762 10.873904-19.334095 45.909334c-4.827429 13.287619-20.528762 25.35619-36.230095 25.35619h-33.840762c-15.701333 0-27.794286 12.092952-27.794286 26.575238v54.369524c0 14.506667 12.092952 26.575238 27.794286 26.575238h33.840762c15.701333 0 31.402667 10.873905 36.230095 25.380572l19.334095 45.909333c7.265524 13.287619 4.827429 32.621714-6.046476 43.495619l-24.137143 22.942476c-6.046476 4.827429-8.46019 12.092952-8.46019 19.334095 0 7.241143 3.608381 14.506667 8.435809 19.334096l39.887238 38.643809a26.989714 26.989714 0 0 0 38.64381 0l24.161524-22.942476c10.873905-9.654857 31.427048-13.287619 44.714666-6.046476l47.104 19.334095c14.506667 4.827429 26.575238 20.528762 26.575239 35.035429V869.424762c0 14.482286 12.092952 26.575238 27.794285 26.575238h55.588572c14.482286 0 27.769905-12.092952 26.575238-26.575238v-33.840762c0-14.482286 12.068571-30.183619 26.575238-35.011048l45.884952-18.139428c14.506667-7.241143 33.840762-4.827429 44.714667 6.046476l24.137143 22.942476a28.452571 28.452571 0 0 0 39.887238 0l38.643809-37.449143c6.046476-4.827429 8.46019-12.068571 8.460191-19.309714 0-7.265524-3.608381-14.506667-8.460191-19.334095l-24.137142-22.966857c-10.873905-10.873905-13.312-30.183619-6.046477-43.471238l19.334096-45.909334c4.827429-13.287619 20.528762-25.380571 36.230095-25.380571h33.816381c14.506667 0 27.794286-12.068571 31.427047-26.575238v-54.369524c0-14.482286-12.092952-26.575238-27.794285-26.575238h-33.816381c-15.701333 0-31.427048-10.873905-36.254476-25.356191l-13.531429-32.158476z m-18.529524-160.182857a28.501333 28.501333 0 0 0-36.815238 2.681905l-3.096381 2.925714a119.954286 119.954286 0 1 1 39.911619-5.607619z m-207.725714 138.166857l12.702476 22.016h39.862857c35.669333 24.478476 59.172571 64.853333 59.172572 110.689524 0 74.873905-61.610667 135.289905-138.922667 135.289905-77.336381 0-138.947048-60.416-138.947048-135.314286 0-74.898286 62.829714-135.314286 138.947048-135.314286 9.264762 0 18.383238 0.926476 27.184762 2.633143zM263.850667 80.530286c53.150476 0 96.646095 42.300952 96.646095 94.232381 0 51.95581-43.495619 94.232381-96.646095 94.232381-53.150476 0-96.646095-42.276571-96.646096-94.232381 0-51.931429 43.471238-94.232381 96.646096-94.232381z"  horiz-adv-x="1145" />

    
    <glyph glyph-name="shujuguanli" unicode="&#59340;" d="M705.77065 465.620443a704.772281 704.772281 0 0 0 47.588961 78.128837c2.687919-0.435187 5.427036-0.691179 8.140554-0.819176a72.445809 72.445809 0 0 1 72.471407 72.445809 73.418579 73.418579 0 0 1-3.353498 20.325785 707.664993 707.664993 0 0 0 88.778114 76.157696 666.552637 666.552637 0 0 1 179.143381-367.91207 698.372474 698.372474 0 0 0-79.971981-92.285209 70.551466 70.551466 0 0 1-115.503706-39.525204A800.743778 800.743778 0 0 0 767.976769 258.11312a392.282533 392.282533 0 0 0-3.404697-53.502381 847.769555 847.769555 0 0 1 139.464581-44.465855 703.825109 703.825109 0 0 0-178.989786-80.765557c-11.135663-21.452151-24.242467-41.726738-39.064418-60.567768l3.379098 0.742377a753.257214 753.257214 0 0 1 260.420922 111.971013c7.321379-2.687919 15.077944-4.095876 22.860109-4.172673a69.4251 69.4251 0 0 1 44.645049 15.999516c24.78005-2.227133 49.91849-3.507094 75.184926-3.507094a852.914999 852.914999 0 0 1 257.041824 39.499605c10.57248-3.199903 21.119361-7.500573 31.845437-10.546881 16.127512-4.96625 33.278993-9.292519 49.25291-13.132403a511.882116 511.882116 0 0 0-775.963727-172.052395A382.785221 382.785221 0 0 0 383.988384-128C171.924399-128 0 43.924399 0 255.988384c0 212.063985 171.924399 383.988384 383.988384 383.988385 46.846583 0 91.747625-8.396546 133.24397-23.756082A511.958913 511.958913 0 0 0 919.549784 893.076312c-2.252732-16.639497-3.993479-33.586184-4.96625-50.532871-0.947171-12.159632-0.947171-24.47286-0.947171-36.786087 0-12.313228 0.947171-24.47286 0.947171-36.632492a761.730558 761.730558 0 0 1-113.558165-92.617998 72.292213 72.292213 0 0 1-111.971013-61.105352 72.445809 72.445809 0 0 1 19.353015-48.945719c-12.722815-18.636236-24.575257-37.835655-35.531725-57.495861 11.954838-13.618788 22.936906-28.10795 32.895004-43.339489z m386.701903-276.215644c-16.639497 0-33.125398 0.66558-49.5857 1.612751 0.127996 2.30393 0.127996 4.607861 0 6.911791v7.807763a770.843882 770.843882 0 0 1 91.978017 103.011284 674.078809 674.078809 0 0 1 142.510889-97.737843 810.215491 810.215491 0 0 0-184.903206-21.580147zM965.449195 743.39764v-0.33279a701.572377 701.572377 0 0 0 167.162943 74.39135 686.699227 686.699227 0 0 0 79.971981 18.559439l17.612268-8.319749c1.919942-20.17219 3.199903-40.31878 3.199903-60.798161v-7.039787a707.664993 707.664993 0 0 0-14.719555-143.944445 69.117909 69.117909 0 0 1-36.325301-119.804376 711.812068 711.812068 0 0 0-55.166331-109.43669A615.354186 615.354186 0 0 0 965.449195 743.39764z m82.557503 97.097863v-0.33279a763.164114 763.164114 0 0 1-85.578211-40.958761v6.732596c0.179195 30.130289 2.355129 60.209379 6.553401 90.058076h3.66069c55.19193 0.076798 109.999873-8.703737 162.375888-26.085611-29.567106-8.038157-58.622227-17.868259-87.037367-29.439109z m402.931811-637.932703v-0.793576a173.972337 173.972337 0 0 0-24.626455 6.553402c10.393286 4.63346 21.247357 9.59971 31.999032 14.56596-2.406327-6.886192-4.812654-13.593189-7.372577-20.325786z m-168.750095 589.294174a511.882116 511.882116 0 0 0 193.069359-505.943095c-18.713034-10.23969-36.171706-18.252248-57.751853-28.312743-21.605746-10.086095-43.825874-18.405843-66.557986-26.085611a621.753992 621.753992 0 0 0-187.642324 118.063628 749.238136 749.238136 0 0 1 65.610815 126.844163 69.578695 69.578695 0 0 1 38.398839 127.970529c8.191752 40.31878 13.183601 81.251942 14.847551 122.364299V791.831375z"  horiz-adv-x="1484" />

    
    <glyph glyph-name="jianshanchuwenjian-" unicode="&#58899;" d="M576 810.666667v-224l0.149333-3.072a32 32 0 0 1 28.778667-28.8L608 554.666667H853.333333v-394.666667H576l-3.754667-0.106667a64 64 0 0 1 0-127.786666L576 32h277.333333v-42.666667a32 32 0 0 0-32-32h-618.666666A32 32 0 0 0 170.666667-10.666667v789.333334A32 32 0 0 0 202.666667 810.666667H576z m256-682.666667a32 32 0 0 0 0-64H576a32 32 0 0 0 0 64zM640 808.832c4.48-1.578667 8.554667-4.138667 11.946667-7.530667L834.602667 618.666667H640V808.832z"  horiz-adv-x="1024" />

    
    <glyph glyph-name="diliweizhi" unicode="&#58997;" d="M512 896C297.367062 896 123.440372 724.187919 123.440372 512.198245c0-211.989675 388.559628-639.669592 388.559628-639.669592s388.559628 427.679917 388.559628 639.669592C900.030976 724.187919 726.632938 896 512 896z m0-639.669592c-143.264843 0-259.039752 114.717605-259.039752 255.867837s115.77491 255.867837 259.039752 255.867837 259.039752-114.717605 259.039752-255.867837c0-141.678885-116.303562-255.867837-259.039752-255.867837z m0 383.801755C440.103252 640.132163 382.480124 582.509035 382.480124 512.198245 382.480124 441.358802 440.631905 384.264326 512 384.264326S641.519876 441.358802 641.519876 512.198245c0 70.31079-58.151781 127.933918-129.519876 127.933918z"  horiz-adv-x="1024" />

    
    <glyph glyph-name="dagou" unicode="&#58946;" d="M502.067499 206.439543l-334.711666 334.711666L0 373.795376l501.795376-501.795376 20.409248 20.409248h0.272123L1358.711666 728.644167 1191.355833 896 502.067499 206.439543z"  horiz-adv-x="1358" />

    
    <glyph glyph-name="jiaose" unicode="&#59332;" d="M1006.153143 280.868571l-109.056 104.448a27.062857 27.062857 0 0 1-38.4-0.804571l-293.741714-306.688-3.364572-3.510857a25.892571 25.892571 0 0 1-6.070857-10.093714 54.272 54.272 0 0 1-1.097143-4.388572l-15.36-145.042286a11.044571 11.044571 0 0 1 12.507429-12.068571l144.164571 21.650286a26.624 26.624 0 0 1 14.189714 7.753143l3.364572 3.510857 293.741714 306.614857a27.574857 27.574857 0 0 1-0.877714 38.619428zM427.154286 423.643429A233.398857 233.398857 0 1 1 660.48 827.977143a233.398857 233.398857 0 0 1-233.325714-404.260572z m210.797714-147.748572h-413.988571l-8.192-0.219428C95.158857 272.603429 0.146286 172.105143 0.146286 51.712v-127.414857H423.497143l14.482286 135.68c0.292571 1.462857 0.731429 2.925714 1.170285 4.388571a25.892571 25.892571 0 0 0 5.997715 10.093715l3.437714 3.510857 189.44 197.705143v0.146285z"  horiz-adv-x="1024" />

    
    <glyph glyph-name="shouqi" unicode="&#59323;" d="M332.141714 895.634286c9.947429 0 19.529143-3.949714 26.697143-10.825143l2.56-2.779429 139.702857-165.083428h443.538286c42.276571 0 76.580571-34.230857 76.580571-76.580572v-689.005714c0-42.276571-34.304-76.580571-76.580571-76.580571H76.946286a76.580571 76.580571 0 0 0-76.580572 76.580571V857.234286C0.365714 877.056 15.36 893.513143 35.108571 895.414857l3.657143 0.219429H332.068571z m178.688-395.629715a38.253714 38.253714 0 0 1-38.326857-38.253714v-114.834286H357.668571l-3.657142-0.146285a38.253714 38.253714 0 0 1-34.596572-38.107429l0.146286-3.657143a38.253714 38.253714 0 0 1 38.107428-34.669714h114.834286v-114.834286a38.253714 38.253714 0 0 1 76.580572 0v114.834286h114.834285l3.657143 0.219429a38.253714 38.253714 0 0 1 34.596572 38.034285l-0.146286 3.657143a38.253714 38.253714 0 0 1-38.034286 34.669714H549.010286v114.834286a38.253714 38.253714 0 0 1-38.253715 38.253714zM314.368 819.053714H76.946286v-102.107428H400.822857L314.514286 819.053714z"  horiz-adv-x="1024" />

    
    <glyph glyph-name="zhankai" unicode="&#59331;" d="M332.141714 895.634286c9.947429 0 19.529143-3.949714 26.697143-10.825143l2.56-2.779429 139.702857-165.083428h443.538286c42.276571 0 76.580571-34.230857 76.580571-76.580572v-689.005714c0-42.276571-34.304-76.580571-76.580571-76.580571H76.946286a76.580571 76.580571 0 0 0-76.580572 76.580571V857.234286C0.365714 877.056 15.36 893.513143 35.108571 895.414857l3.657143 0.219429H332.068571z m140.434286-548.717715H357.668571l-3.730285-0.146285a38.253714 38.253714 0 0 1-34.596572-38.107429l0.146286-3.657143a38.253714 38.253714 0 0 1 38.107429-34.669714h306.249142l3.657143 0.219429a38.253714 38.253714 0 0 1 34.596572 38.034285l-0.146286 3.657143a38.253714 38.253714 0 0 1-38.034286 34.669714H472.502857zM314.294857 819.053714H76.946286v-102.107428H400.822857L314.514286 819.053714z"  horiz-adv-x="1024" />

    
    <glyph glyph-name="qiye" unicode="&#59321;" d="M513.316571 646.631619h167.204572v-83.577905h-167.204572V646.631619z m0-250.831238h167.204572v-83.577905h-167.204572v83.577905z m0-250.782476h167.204572v-83.577905h-167.204572v83.577905zM1086.561524-35.157333V632.978286h-250.538667V883.95581H334.409143V883.809524h-0.048762L83.626667 633.07581h-0.048762v-668.233143H0v-83.626667h1170.285714v83.626667h-83.72419z m-752.152381 0h-167.253333V613.180952l167.253333 167.253334v-815.640381z m418.035809 0H417.889524V800.329143h334.506666v-835.486476z m250.489905 0h-166.912V549.400381h166.912v-584.557714z"  horiz-adv-x="1170" />

    
    <glyph glyph-name="dangqianyingyong" unicode="&#59314;" d="M1024 331.349333V-128H564.650667V331.349333H1024z m-564.650667 0V-128H0V331.349333h459.349333z m459.434667-105.301333H669.866667v-248.832h248.917333V226.133333z m-564.736 0H105.216v-248.832H354.133333V226.133333zM1024 896v-459.349333H564.650667V896H1024zM459.349333 896v-459.349333H0V896h459.349333z m459.434667-105.216H669.866667V541.866667h248.917333V790.784z m-564.736 0H105.216V541.866667H354.133333V790.784z"  horiz-adv-x="1024" />

    
    </font>
</defs>
</svg>
